<?xml version="1.0" encoding="UTF-8"?>
<svg width="1081px" height="721px" viewBox="0 0 1080 720" version="1.1" xmlns="http://www.w3.org/2000/svg" xmlns:xlink="http://www.w3.org/1999/xlink">
    <!-- Generator: Sketch 60 (88103) - https://sketch.com -->
    <title>Untitled</title>
    <desc>Created with Sketch.</desc>
    <g id="Page-1" stroke="none" stroke-width="1" fill="none" fill-rule="evenodd">
        <g id="Bandera_nacionalista_sarda">
            <g id="g2656" fill-rule="nonzero">
                <rect id="rect2658" fill="#FFFFFF" x="0.836" y="0.018" width="1080" height="720"></rect>
                <rect id="rect2660" fill="#FF0000" x="490.842" y="0.018" width="100" height="720"></rect>
                <rect id="rect2662" fill="#FF0000" x="0.842" y="310.023" width="1080" height="100"></rect>
            </g>
            <g id="g2664" transform="translate(124.000000, 29.000000)">
                <path d="M179.039,190.537 C157.703,200.404 152.487,213.399 143.066,223.765 C133.644,234.129 119.595,256.427 92.27,248.888 C91.414,243.304 87.885,227.903 77.582,220.938 C71.216,217.06 63.448,211.516 62.034,202.092 C50.727,204.92 22.413,207.181 21.047,192.199 C20.577,187.017 25.016,179.078 20.269,173.612 C19.196,173.646 13.188,173.765 11.611,173.031 C9.963,171.084 11.59,163.998 12.785,162.425 L12.771,162.36 C9.95,162.102 2.674,155.453 11.625,150.741 C13.986,147.967 13.572,145.699 13.564,143.14 C12.085,143.161 8.451,143.119 7.918,143.084 C-1.517,143.049 -0.305,136.961 2.413,130.482 C4.297,126.242 14.922,105.983 16.806,103.157 C18.691,100.33 18.691,98.917 17.277,96.09 C15.863,93.264 16.335,88.552 17.277,85.255 C18.22,81.958 20.105,76.776 18.691,75.361 C17.277,73.948 17.749,69.236 18.22,68.295 C18.691,67.352 18.691,64.997 18.691,64.055 C18.691,63.113 19.162,60.757 20.576,59.816 C21.988,58.873 22.93,55.575 21.988,54.632 C21.046,53.691 28.113,45.21 29.526,41.913 C29.359,37.26 33.013,31.98 35.18,29.663 C36.594,28.249 36.122,23.538 36.122,23.538 L40.267,23.633 C40.719,23.482 44.13,18.827 47.429,17.884 C50.726,16.942 58.264,13.173 58.264,13.173 L63.447,7.52 L68.157,9.874 C68.157,9.874 71.927,8.462 75.224,7.99 C78.521,7.519 85.588,5.163 87.944,1.395 C90.299,-2.375 89.828,5.88 89.903,6.332 C90.204,6.406 94.069,4.221 100.663,4.692 C107.259,5.163 114.797,7.99 117.153,7.048 C119.508,6.105 121.864,8.933 121.864,8.933 C121.864,8.933 126.575,11.759 130.343,11.759 C134.113,11.759 137.409,11.759 137.409,11.759 L137.88,15.056 C137.88,15.056 144.947,17.487 148.244,18.901 C151.542,20.313 154.369,22.123 158.609,22.593 C162.849,23.065 164.262,24.478 164.262,24.478 L162.378,28.247 C162.378,28.247 167.465,29.285 168.973,34.372 C171.801,38.141 175.569,44.266 178.396,44.736 C181.222,45.207 183.107,46.621 183.107,46.621 L179.338,51.332 C179.338,51.332 180.279,52.746 182.164,54.63 C184.049,56.515 187.817,59.814 187.817,59.814 L185.461,64.053 C185.461,64.053 185.461,64.995 185.933,67.35 C186.404,69.706 186.404,73.946 188.76,74.888 C191.114,75.831 191.114,78.657 191.114,78.657 C191.114,78.657 191.586,79.128 188.76,80.071 C185.933,81.013 184.049,81.013 185.461,82.897 C186.875,84.782 189.232,88.08 189.232,88.08 C189.232,88.08 186.876,89.492 184.521,89.963 C182.165,90.435 179.81,90.435 179.81,90.435 C179.81,90.435 181.694,99.387 183.579,100.799 C185.462,102.213 180.751,103.155 177.926,101.741 C175.098,100.327 176.865,105.981 178.75,106.452 C180.635,106.923 178.065,107.583 175.853,107.606 C173.968,107.135 171.543,107.465 172.626,110.245 C174.04,114.013 175.571,115.875 171.802,117.759 C168.033,119.644 164.616,128.124 166.501,130.95 C168.386,133.776 169.446,138.017 169.446,138.017 L160.495,138.488 C160.495,138.488 159.882,139.901 162.238,142.257 C164.593,144.613 166.949,147.298 166.619,147.957 C166.689,148.977 159.529,148.562 159.6,149.583 C165.692,179.697 180.162,188.144 180.183,189.729 L179.039,190.537 L179.039,190.537 L179.039,190.537 L179.039,190.537 L179.039,190.537 L179.039,190.537 L179.039,190.537 L179.039,190.537 L179.039,190.537 L179.039,190.537 L179.039,190.537 L179.039,190.537 L179.039,190.537 L179.039,190.537 L179.039,190.537 L179.039,190.537 L179.039,190.537 L179.039,190.537 L179.039,190.537 Z" id="path809" stroke="#000000" stroke-width="1.333" fill="#000000" fill-rule="nonzero"></path>
                <g id="g2667" transform="translate(9.000000, 60.000000)" fill-rule="nonzero">
                    <g id="g2669">
                        <path d="M102.183,82.365 C99.722,82.365 97.366,81.467 95.71,79.9 C95.089,79.421 93.48,78.121 93.988,76.632 C94.159,76.133 94.691,75.298 96.357,75.298 C97.81,75.298 99.966,75.891 102.609,77.012 C105.511,76.699 108.491,71.039 110.074,65.77 C111.499,61.023 113.35,58.417 117.144,55.809 C120.12,53.761 121.969,46.051 119.728,41.764 C116.294,37.176 112.43,34.851 108.246,34.851 C100.483,34.851 93.518,42.777 90.333,50.142 L90.134,50.6 L89.686,50.815 C87.277,51.97 73.558,52.72 69.35,52.72 C67.644,52.72 66.517,52.72 66.257,51.538 L66.072,50.698 C63.665,51.51 61.436,52.278 60.257,52.724 C57.002,53.953 51.097,54.954 47.096,54.954 C45.963,54.954 44.988,54.878 44.2,54.725 C40.701,54.056 11.049,53.36 4.071,53.36 C2.821,53.36 2.218,52.816 1.935,52.358 C1.19,51.156 1.895,49.732 2.789,47.929 C3.251,46.996 3.755,45.976 4.031,45.033 L3.912,43.998 C3.896,43.719 3.944,43.321 4.266,43.005 L4.278,42.637 L5.07,42.601 C5.174,42.577 5.287,42.555 5.411,42.54 L5.415,42.584 L5.509,42.58 C5.642,42.574 5.813,42.564 6.015,42.552 C5.987,42.546 5.959,42.54 5.931,42.534 C5.081,42.53 4.348,42.208 3.805,41.596 C2.268,39.858 2.718,36.192 3.194,32.314 C3.369,30.881 4.372,28.57 8.899,28.132 C8.166,27.503 7.326,26.736 6.369,25.795 C2.488,22.131 4.192,13.693 6.923,9.017 C8.27,6.71 8.587,5.673 8.868,4.755 C9.093,4.02 9.306,3.324 9.917,2.283 L10.341,1.561 L11.177,1.629 C27.736,2.998 42.723,5.63 56.993,9.677 C65.23,11.478 66.796,12.786 66.689,14.436 C66.597,15.903 65.033,16.717 61.364,17.149 C65.365,16.974 69.006,16.614 72.39,16.066 C73.356,15.909 74.293,15.731 75.217,15.554 C77.649,15.088 79.944,14.648 82.472,14.648 C83.432,14.648 84.347,14.71 85.269,14.841 C91.583,15.735 96.472,16.187 99.798,16.187 C100.709,16.187 101.496,16.153 102.143,16.083 C102.535,16.041 102.84,16.025 103.063,16.025 C104.474,16.025 104.763,16.887 104.821,17.259 C104.922,17.888 104.902,18.346 103.686,19.003 C104.164,19.025 104.661,19.037 105.161,19.037 C106.521,19.037 107.765,18.949 108.858,18.77 C109.206,18.714 109.587,18.687 110.03,18.687 C116.346,18.687 134.018,24.929 137.631,27.577 C140.155,29.428 150.109,31.138 156.057,32.161 C157.661,32.436 159.059,32.676 160.096,32.878 C164.672,33.769 171.107,38.342 171.765,41.171 C171.964,42.023 171.697,42.825 171.052,43.314 C170.626,43.637 169.985,44.023 169.243,44.471 C168.64,44.837 167.623,45.45 166.878,45.984 C167.78,46.285 167.913,47.019 167.929,47.266 C168.001,48.243 168.075,49.251 157.186,51.986 C155.14,52.499 151.829,52.575 150.036,52.575 C144.474,52.575 137.257,51.896 134.56,50.401 C133.495,49.81 131.934,49.499 130.048,49.499 C128.724,49.499 127.516,49.65 126.777,49.769 C126.076,52.046 124.012,58.042 121.238,59.835 C117.734,62.251 115.517,67.471 113.735,71.665 C112.853,73.741 112.091,75.538 111.255,76.86 C109.449,80.308 106.059,82.365 102.183,82.365 L102.183,82.365 Z" id="path2671" fill="#FFFFFF"></path>
                        <path d="M11.067,2.96 C26.489,4.233 41.737,6.737 56.63,10.962 C68.547,13.57 66.802,15.351 60.086,15.941 C59.599,16.007 58.104,16.029 55.989,16.029 C53.75,16.029 50.816,16.004 47.648,15.979 C44.477,15.954 41.072,15.929 37.894,15.929 C34.586,15.929 31.524,15.956 29.231,16.039 C21.319,16.324 27.963,17.598 30.897,17.705 C38.827,17.999 47.066,18.61 55.316,18.61 C61.107,18.61 66.904,18.309 72.604,17.385 C76.035,16.829 79.116,15.98 82.474,15.981 C83.323,15.981 84.189,16.035 85.082,16.162 C88.77,16.684 95.239,17.523 99.799,17.523 C100.718,17.523 101.56,17.489 102.286,17.411 C102.619,17.375 102.876,17.359 103.066,17.359 C105.344,17.359 98.072,19.716 98.072,19.716 C98.072,19.716 101.399,20.372 105.164,20.372 C106.455,20.372 107.797,20.295 109.074,20.088 C109.352,20.043 109.673,20.022 110.033,20.022 C116.17,20.022 133.571,26.256 136.845,28.655 C140.309,31.195 154.651,33.179 159.842,34.189 C165.03,35.199 171.908,40.995 170.248,42.255 C168.584,43.516 161.75,46.754 166.193,47.198 C168.385,47.417 161.277,49.588 156.862,50.697 C155.384,51.068 152.867,51.246 150.038,51.246 C144.413,51.246 137.558,50.54 135.209,49.239 C133.711,48.408 131.78,48.169 130.052,48.169 C127.704,48.169 125.732,48.611 125.732,48.611 C125.732,48.611 123.437,56.829 120.518,58.718 C114.885,62.598 112.6,72.299 110.095,76.21 C108.388,79.489 105.223,81.033 102.181,81.033 C100.083,81.033 98.043,80.299 96.581,78.892 C94.802,77.521 94.822,76.631 96.356,76.631 C97.523,76.631 99.567,77.147 102.361,78.359 C106.739,78.354 110.019,70.584 111.348,66.154 C112.68,61.723 114.333,59.358 117.897,56.907 C121.461,54.455 123.455,45.866 120.856,41.053 C116.869,35.688 112.493,33.518 108.243,33.518 C100.29,33.518 92.78,41.119 89.105,49.613 C87.106,50.573 74.159,51.386 69.349,51.386 C68.034,51.386 67.327,51.325 67.619,51.19 C70.656,49.269 72.17,48.253 75.219,46.301 C75.395,46.239 75.472,46.211 75.461,46.211 C75.337,46.211 63.211,50.182 59.782,51.477 C56.803,52.602 51.124,53.622 47.091,53.622 C46.085,53.622 45.181,53.559 44.448,53.417 C40.771,52.712 10.949,52.028 4.068,52.028 C0.917,52.028 5.455,47.481 5.567,43.914 C7.271,43.836 15.046,43.226 15.046,43.226 C15.046,43.226 8.241,41.698 6.068,41.198 C6.024,41.201 5.981,41.202 5.939,41.202 C3.448,41.202 4.001,36.646 4.513,32.478 C4.831,29.895 8.042,29.391 10.502,29.391 C12.078,29.391 13.346,29.598 13.346,29.598 C13.346,29.598 11.555,29.028 7.301,24.845 C4.016,21.743 5.619,13.89 8.073,9.689 C10.529,5.489 9.797,5.12 11.067,2.96 M5.571,43.865 C5.571,43.882 5.571,43.899 5.57,43.915 C5.454,43.92 5.366,43.923 5.311,43.923 C5.172,43.923 5.236,43.906 5.571,43.865 M9.617,0.166 L8.769,1.609 C8.077,2.785 7.82,3.626 7.594,4.367 C7.335,5.214 7.042,6.174 5.773,8.345 C2.936,13.204 0.877,22.405 5.448,26.761 C5.662,26.972 5.872,27.175 6.076,27.37 C2.747,28.524 2.019,30.939 1.869,32.154 C1.355,36.34 0.869,40.292 2.806,42.48 C2.843,42.522 2.881,42.563 2.92,42.604 C2.553,43.27 2.573,43.946 2.581,44.08 C2.595,44.31 2.642,44.543 2.719,44.77 C2.465,45.581 1.995,46.529 1.594,47.338 C0.646,49.251 -0.335,51.23 0.802,53.061 C1.181,53.672 2.109,54.696 4.072,54.696 C11.864,54.696 40.755,55.425 43.95,56.037 C44.819,56.204 45.878,56.289 47.095,56.289 C51.299,56.289 57.287,55.271 60.728,53.972 C61.68,53.612 63.302,53.048 65.146,52.421 C65.868,54.054 67.783,54.054 69.353,54.054 C71.827,54.054 87.194,53.493 90.264,52.018 L91.161,51.587 L91.556,50.673 C94.575,43.695 101.085,36.185 108.247,36.185 C111.963,36.185 115.444,38.302 118.597,42.478 C120.553,46.38 118.608,53.186 116.39,54.711 C112.363,57.48 110.305,60.373 108.798,65.387 C107.032,71.27 104.404,75.082 102.746,75.626 C100.772,74.812 98.262,73.965 96.359,73.965 C93.769,73.965 92.956,75.53 92.727,76.202 C92.185,77.793 92.897,79.378 94.843,80.916 C96.767,82.711 99.367,83.698 102.182,83.698 C106.473,83.698 110.379,81.344 112.404,77.546 C113.288,76.136 114.067,74.304 114.965,72.19 C116.675,68.163 118.802,63.154 122.008,60.928 C124.837,59.061 126.835,53.962 127.803,50.974 C128.437,50.898 129.221,50.833 130.053,50.833 C131.713,50.833 133.05,51.087 133.917,51.568 C137.251,53.417 145.62,53.91 150.039,53.91 C152.304,53.91 155.438,53.801 157.512,53.281 C159.664,52.74 162.159,52.027 164.025,51.417 C166.933,50.468 169.444,49.648 169.263,47.169 C169.24,46.851 169.157,46.511 169.002,46.184 C169.354,45.965 169.686,45.764 169.936,45.613 C170.71,45.145 171.379,44.741 171.86,44.377 C172.938,43.559 173.388,42.248 173.068,40.869 C172.228,37.255 165.077,32.489 160.353,31.569 C159.298,31.363 157.907,31.125 156.297,30.848 C151.233,29.978 140.696,28.168 138.423,26.502 C134.604,23.705 116.694,17.353 110.034,17.353 C109.52,17.353 109.066,17.386 108.647,17.454 C107.901,17.575 107.076,17.652 106.183,17.685 C106.19,17.484 106.176,17.273 106.141,17.048 C106.103,16.807 105.693,14.69 103.067,14.69 C102.775,14.69 102.426,14.711 102.004,14.757 C101.405,14.821 100.663,14.854 99.8,14.854 C96.532,14.854 91.706,14.405 85.457,13.52 C84.474,13.381 83.499,13.313 82.475,13.313 C79.821,13.313 77.353,13.787 74.967,14.245 C74.058,14.419 73.119,14.599 72.178,14.752 C70.789,14.977 69.354,15.17 67.868,15.331 C67.95,15.082 68.002,14.812 68.02,14.522 C68.222,11.368 64.562,9.973 57.278,8.374 C42.949,4.314 27.904,1.674 11.286,0.302 L9.617,0.166 L9.617,0.166 Z" id="path2673" fill="#000000"></path>
                    </g>
                </g>
                <path d="M114.629,110.892 C114.783,110.91 115.416,111.022 115.821,111.446 C116.272,112.028 116.653,112.549 116.879,113.11 C117.047,113.859 117.266,114.477 117.145,115.189 C116.891,115.888 116.55,116.384 116.085,116.853 C115.561,117.501 115.179,117.83 114.628,118.24 C114.014,118.53 113.425,119.096 112.906,119.349 C112.658,119.686 112.02,119.933 111.715,120.318 C111.362,120.792 111.09,121.027 111.052,121.705 C110.823,122.378 110.748,123.207 110.655,123.923 C110.525,124.709 110.34,125.447 110.258,126.142 C109.928,126.734 109.566,127.038 108.801,127.25 C108.169,127.363 107.514,127.389 106.815,127.389 C106.419,127.011 105.745,126.583 105.358,126.142 C105.358,125.772 105.358,125.402 105.358,125.033" id="path817" stroke="#FFFFFF" stroke-width="3.3722" stroke-linecap="round"></path>
                <path d="M104.468,107.946 C107.855,102.496 128.187,92.336 123.032,111.776 C121.854,113.838 124.063,114.722 124.653,113.249 C130.102,90.274 107.561,99.992 103.881,106.031 C102.407,108.534 103.593,107.947 103.593,107.8 L103.593,107.8 L104.468,107.946 Z" id="path818" stroke="#FFFFFF" stroke-width="1.333" fill="#FFFFFF" fill-rule="nonzero"></path>
                <path d="M30.045,84.494 C37.999,84.347 46.392,84.788 52.872,88.912 C59.351,93.036 66.167,95.201 72.018,94.214 C78.845,93.063 82.475,94.361 82.475,94.361 L82.475,94.361" id="path823" stroke="#000000" stroke-width="2.6659" stroke-linecap="round"></path>
                <path d="M128.552,88.442 C142.997,92.699 145.606,94.081 151.828,97.403 C158.049,100.724 160.286,101.183 165.523,103.947 C169.406,105.864 172.36,106.197 172.36,106.197 C175.755,108.473 157.19,99.521 146.321,102.935 C142.272,103.258 141.649,103.308 137.583,99.497 C133.519,95.683 128.879,92.554 122.449,90.521 C116.018,88.487 104.788,85.248 104.788,85.248" id="path824" stroke="#000000" stroke-width="2.7737" stroke-linecap="round"></path>
                <path d="M139.798,109.6 C140.603,109.6 143.956,109.472 145.244,109.902 C146.369,110.054 148.169,110.2 149.178,110.507 C150.89,110.71 152.466,111.066 154.322,111.111 C156.318,111.13 157.027,111.738 158.862,112.019 C159.435,112.736 160.518,113.597 161.283,114.138" id="path826" stroke="#000000" stroke-width="2.3327" stroke-linecap="round"></path>
                <g id="g895" transform="translate(171.500000, 12.250000)" stroke="#000000" stroke-width="2.6659">
                    <path d="M41.037,8.685 C41.193,10.403 41.734,17.908 40.985,17.991 C36.749,18.596 33.826,19.306 30.195,22.938 C26.565,26.57 18.254,32.752 13.542,24.266 C11.121,19.424 17.018,17.159 20.044,17.159 C23.018,17.056 27.69,14.759 32.532,13.548 C37.374,12.337 39.339,9.226 39.944,9.831 L41.037,8.685 L41.037,8.685 Z" id="path865"></path>
                    <g id="g885">
                        <path d="M60.118,27.222 C60.782,26.857 63.921,22.662 62.297,17.549 C59.942,14.016 72.96,21.351 70.212,25.276 C66.734,27.985 59.847,27.951 60.118,27.222 L60.118,27.222 Z" id="path863"></path>
                        <g id="g877">
                            <path d="M29.117,10.838 C29.061,10.038 28.965,2.878 29.086,1.297 C31.519,0.932 38.721,-0.113 40.291,2.242 C45.874,10.679 29.614,14.881 29.222,13.702 L29.117,10.838 L29.117,10.838 Z" id="path864"></path>
                            <g id="g871" transform="translate(0.000000, 18.000000)">
                                <path d="M15.985,9.752 L26.189,45.074 C26.189,45.074 31.949,70.147 14.415,76.864 C8.92,77.257 6.958,76.471 6.958,76.471 L8.528,85.104 C16.311,93.131 21.329,91.235 28.002,88.488 C34.673,85.74 34.944,85.525 38.477,83.563 C42.009,81.601 46.879,70.539 47.42,67.395 C48.935,59.263 54.047,43.289 69.399,9.36 C66.63,9.116 48.571,10.94 47.354,10.94 C46.746,11.914 43.907,16.553 39.533,18.386 C34.729,20.349 27.81,14.692 34.823,10.145 C38.251,7.961 49.622,10.534 49.41,4.595 C49.121,-0.565 41.494,-0.059 38.354,0.335 C35.214,0.727 30.898,4.259 28.935,6.221 C24.543,10.615 18.34,11.322 15.985,9.752 L15.985,9.752 L15.985,9.752 L15.985,9.752 L15.985,9.752 Z" id="path862"></path>
                                <g id="g867" transform="translate(0.000000, 86.000000)">
                                    <path d="M0.286,7.739 C2.641,11.664 4.996,16.373 6.175,22.653 C7.351,28.933 10.751,37.716 19.519,39.922 C26.582,41.884 32.861,45.024 34.432,50.518 C36.002,56.013 37.123,63.022 37.123,62.9 L48.046,47.445 C47.924,45.378 47.841,40.342 47.841,34.455 C47.72,25.893 41.374,23.803 35.095,21.448 C28.816,19.095 21.778,16.17 19.817,12.638 C17.854,9.105 12.846,3.031 10.1,0.676 C7.351,-1.679 0.286,7.739 0.286,7.739 L0.286,7.739 L0.286,7.739 L0.286,7.739 Z" id="path859"></path>
                                    <path d="M11.832,80.596 C17.898,91.505 19.287,105.511 21.781,115.947 C26.111,107.725 32.849,101.864 39.953,97.249 C40.37,89.062 42.443,77.761 44.798,74.229 C56.173,57.653 48.168,48.164 48.168,48.164 C36.801,61.512 36.41,71.061 11.852,80.575 L11.832,80.596 L11.832,80.596 L11.832,80.596 Z" id="path860"></path>
                                    <path d="M1.022,114.312 C0.71,117.02 4.333,126.433 10.465,126.853 C16.488,127.266 19.964,122.632 21.065,117.215 L18.047,99.023 L1.022,114.312 L1.022,114.312 Z" id="path866"></path>
                                </g>
                            </g>
                        </g>
                    </g>
                </g>
                <path d="M172.979,108.736 C171.769,105.407 173.584,105.407 176.913,106.92 C182.361,110.249 178.426,118.721 172.374,120.538 C169.045,122.052 167.229,118.116 172.071,116.302 C176.611,115.091 172.979,108.434 172.979,108.736 L173.283,108.736 L172.979,108.736 L172.979,108.736 Z" id="path912" stroke="#000000" stroke-width="1.333" fill="#FFFFFF" fill-rule="nonzero"></path>
                <path d="M211.819,161.686 C211.819,161.823 211.819,161.959 211.819,162.096 C211.819,160.988 211.799,161.552 212.121,163.738 C212.121,165.958 212.288,167.824 212.425,169.895 C212.425,171.609 212.222,172.838 212.121,174.409" id="path955" stroke="#000000" stroke-width="1.6662"></path>
                <path d="M208.792,163.735 C208.792,163.985 208.792,164.235 208.792,164.485 C208.792,163.098 208.753,163.49 209.096,165.608 C209.217,167.721 209.641,168.823 209.701,170.856 C209.701,172.917 209.455,174.518 209.398,176.477" id="path956" stroke="#000000" stroke-width="1.6662"></path>
                <path d="M207.279,208.855 C207.38,208.855 207.481,208.855 207.581,208.855 C207.501,209.14 207.581,210.762 207.581,211.845 C207.581,213.477 207.551,215.07 207.279,216.117" id="path957" stroke="#000000" stroke-width="1.6662"></path>
                <path d="M203.951,210.368 C203.951,210.57 203.951,210.772 203.951,210.973 L203.951,210.368 C203.951,210.57 203.951,210.772 203.951,210.973 L203.951,210.368 C204.016,212.605 204.253,213.842 204.253,216.118 C204.253,216.815 204.385,217.343 203.951,217.632" id="path958" stroke="#000000" stroke-width="1.6662"></path>
                <path d="M200.924,212.184 C201.048,214.621 201.455,216.217 201.529,218.72 C201.529,219.979 201.277,220.118 201.227,221.262" id="path960" stroke="#000000" stroke-width="1.6662"></path>
                <path d="M197.292,214.027 C197.292,214.154 197.292,214.282 197.292,214.41 C197.292,213.377 197.272,213.902 197.595,215.939 C197.65,217.817 197.897,218.83 197.897,220.91 C197.841,222.907 197.399,223.74 197.292,225.498" id="path961" stroke="#000000" stroke-width="1.6662"></path>
                <path d="M194.57,215.211 C194.57,215.751 194.734,217.849 194.873,219.144 C194.873,220.557 194.873,221.969 194.873,223.38 C194.706,224.791 194.397,226.306 193.965,227.315 C193.965,227.617 193.965,227.919 193.965,228.222" id="path963" stroke="#000000" stroke-width="1.6662"></path>
                <path d="M214.845,162.352 C214.922,162.921 215.37,165.091 214.845,166.486 C214.845,167.72 214.703,168.351 214.542,169.241" id="path977" stroke="#000000" stroke-width="1.6662"></path>
                <path d="M179.902,110.026 C183.963,110.859 193.856,110.026 197.814,107.11 C201.771,104.194 201.771,104.194 201.771,104.194" id="path978" stroke="#000000" stroke-width="1.333"></path>
                <path d="M179.916,112.018 C183.796,113.481 193.696,114.216 198.063,111.961 C202.431,109.705 202.431,109.705 202.431,109.705" id="path979" stroke="#000000" stroke-width="1.333"></path>
                <path d="M179.589,117.315 C181.672,119.815 183.13,121.064 183.755,124.397 C184.38,127.73 184.38,127.73 184.38,127.73" id="path980" stroke="#000000" stroke-width="1.333"></path>
                <path d="M177.09,118.565 C179.59,122.106 181.255,123.355 182.089,126.896 C182.922,130.437 182.922,130.437 182.922,130.437" id="path981" stroke="#000000" stroke-width="1.333"></path>
                <path d="M175.007,120.856 C176.048,126.272 180.214,136.477 183.338,139.809 C186.463,143.142 186.463,143.142 186.463,143.142" id="path982" stroke="#000000" stroke-width="1.333"></path>
                <path d="M217.733,52.487 C217.427,55.015 217.274,59.993 218.192,63.133 C219.111,66.273 219.111,66.273 219.111,66.273" id="path986" stroke="#000000" stroke-width="1.333"></path>
                <path d="M225.085,44.523 C223.324,45.136 220.721,46.515 219.878,47.663 C219.036,48.812 219.036,48.812 219.036,48.812" id="path987" stroke="#000000" stroke-width="1.333"></path>
                <path d="M203.831,46.79 C207.624,53.458 206.448,75.245 205.663,77.726 C204.878,80.207 204.878,80.207 204.878,80.207" id="path988" stroke="#000000" stroke-width="1.753"></path>
                <path d="M191.461,33.276 C189.899,33.797 186.67,36.348 186.41,37.754" id="path989" stroke="#000000" stroke-width="1.333"></path>
                <path d="M193.96,35.099 C192.398,35.62 189.169,38.171 188.909,39.577" id="path990" stroke="#000000" stroke-width="1.333"></path>
                <circle id="circle2711" stroke="#FFFFFF" stroke-width="5.3319" cx="112.154" cy="145.353" r="12.441"></circle>
                <polygon id="polygon2713" fill="#000000" fill-rule="nonzero" points="115.043 136.468 116.154 134.911 117.265 133.135 118.598 131.579 118.82 130.024 119.042 127.136 116.598 126.025 113.266 127.136 111.933 128.691 113.044 130.245 113.488 131.579 113.044 133.578 112.377 134.911 111.489 136.022"></polygon>
            </g>
            <g id="g2715" transform="translate(125.000000, 440.000000)">
                <path d="M179.047,190.531 C157.71,200.398 152.494,213.393 143.073,223.759 C133.65,234.123 119.602,256.421 92.277,248.882 C91.421,243.298 87.892,227.898 77.589,220.932 C71.223,217.054 63.455,211.509 62.041,202.086 C50.734,204.913 22.42,207.175 21.054,192.192 C20.584,187.01 25.023,179.071 20.276,173.606 C19.203,173.639 13.195,173.758 11.618,173.024 C9.97,171.078 11.597,163.992 12.792,162.419 L12.778,162.355 C9.957,162.096 2.681,155.447 11.632,150.736 C13.993,147.962 13.579,145.693 13.571,143.135 C12.092,143.156 8.458,143.114 7.925,143.079 C-1.51,143.044 -0.298,136.956 2.42,130.477 C4.304,126.237 14.929,105.978 16.813,103.152 C18.698,100.325 18.698,98.912 17.284,96.085 C15.87,93.26 16.342,88.547 17.284,85.25 C18.227,81.953 20.112,76.771 18.698,75.356 C17.284,73.943 17.756,69.232 18.227,68.29 C18.698,67.348 18.698,64.992 18.698,64.05 C18.698,63.108 19.169,60.752 20.583,59.811 C21.995,58.868 22.937,55.57 21.995,54.627 C21.053,53.686 28.12,45.205 29.533,41.908 C29.366,37.255 33.02,31.974 35.187,29.658 C36.601,28.244 36.129,23.533 36.129,23.533 L40.274,23.629 C40.726,23.478 44.137,18.823 47.436,17.881 C50.733,16.938 58.271,13.17 58.271,13.17 L63.454,7.516 L68.164,9.871 C68.164,9.871 71.934,8.459 75.231,7.986 C78.528,7.515 85.595,5.16 87.951,1.391 C90.306,-2.38 89.835,5.876 89.91,6.328 C90.211,6.402 94.076,4.217 100.67,4.689 C107.266,5.16 114.804,7.986 117.16,7.044 C119.515,6.101 121.871,8.929 121.871,8.929 C121.871,8.929 126.581,11.755 130.351,11.755 C134.121,11.755 137.417,11.755 137.417,11.755 L137.888,15.052 C137.888,15.052 144.955,17.484 148.252,18.898 C151.55,20.31 154.377,22.12 158.616,22.59 C162.856,23.062 164.27,24.476 164.27,24.476 L162.385,28.244 C162.385,28.244 167.473,29.282 168.981,34.369 C171.808,38.138 175.577,44.263 178.404,44.733 C181.229,45.205 183.115,46.618 183.115,46.618 L179.346,51.329 C179.346,51.329 180.287,52.743 182.172,54.627 C184.057,56.512 187.825,59.811 187.825,59.811 L185.469,64.05 C185.469,64.05 185.469,64.992 185.941,67.348 C186.413,69.704 186.413,73.944 188.768,74.885 C191.122,75.828 191.122,78.655 191.122,78.655 C191.122,78.655 191.594,79.126 188.768,80.069 C185.941,81.01 184.057,81.01 185.469,82.895 C186.883,84.78 189.24,88.078 189.24,88.078 C189.24,88.078 186.884,89.49 184.528,89.962 C182.173,90.433 179.817,90.433 179.817,90.433 C179.817,90.433 181.702,99.385 183.587,100.798 C185.47,102.212 180.759,103.153 177.933,101.739 C175.106,100.326 176.872,105.979 178.757,106.45 C180.642,106.922 178.072,107.582 175.86,107.604 C173.975,107.133 171.55,107.463 172.632,110.244 C174.046,114.013 175.577,115.874 171.809,117.758 C168.04,119.643 164.623,128.123 166.508,130.949 C168.393,133.775 169.452,138.015 169.452,138.015 L160.501,138.487 C160.501,138.487 159.888,139.9 162.245,142.256 C164.599,144.611 166.956,147.297 166.626,147.956 C166.696,148.976 159.536,148.561 159.607,149.582 C165.699,179.696 180.169,188.144 180.19,189.728 L179.047,190.531 L179.047,190.531 L179.047,190.531 L179.047,190.531 L179.047,190.531 L179.047,190.531 L179.047,190.531 L179.047,190.531 L179.047,190.531 L179.047,190.531 L179.047,190.531 L179.047,190.531 L179.047,190.531 L179.047,190.531 L179.047,190.531 L179.047,190.531 L179.047,190.531 L179.047,190.531 L179.047,190.531 Z" id="path809_1_" stroke="#000000" stroke-width="1.333" fill="#000000" fill-rule="nonzero"></path>
                <g id="g2718" transform="translate(9.000000, 60.000000)" fill-rule="nonzero">
                    <g id="g2720">
                        <path d="M102.191,82.36 C99.734,82.36 97.382,81.464 95.726,79.901 C95.109,79.425 93.486,78.123 93.996,76.627 C94.165,76.128 94.7,75.292 96.367,75.292 C97.818,75.292 99.975,75.883 102.614,77.007 C105.519,76.696 108.5,71.036 110.082,65.766 C111.506,61.021 113.357,58.413 117.153,55.804 C120.13,53.757 121.979,46.043 119.735,41.759 C116.299,37.172 112.438,34.846 108.255,34.846 C100.491,34.846 93.525,42.773 90.339,50.138 L90.143,50.594 L89.693,50.81 C87.289,51.965 73.567,52.715 69.359,52.715 C67.652,52.715 66.524,52.715 66.264,51.532 L66.08,50.693 C63.676,51.503 61.454,52.269 60.266,52.717 C57.008,53.948 51.105,54.949 47.106,54.949 C45.972,54.949 44.998,54.871 44.21,54.721 C40.713,54.049 11.06,53.356 4.081,53.356 C2.831,53.356 2.228,52.809 1.945,52.352 C1.199,51.15 1.905,49.726 2.799,47.924 C3.262,46.992 3.767,45.972 4.041,45.029 L3.923,43.99 C3.906,43.713 3.953,43.313 4.276,42.999 L4.286,42.632 L5.068,42.598 C5.176,42.571 5.292,42.549 5.419,42.535 L5.423,42.582 L5.52,42.577 C5.655,42.571 5.829,42.562 6.036,42.55 C6.006,42.542 5.977,42.535 5.947,42.529 C5.093,42.526 4.356,42.201 3.815,41.589 C2.277,39.853 2.727,36.189 3.202,32.31 C3.38,30.875 4.381,28.567 8.909,28.127 C8.176,27.499 7.337,26.731 6.38,25.79 C2.499,22.127 4.204,13.688 6.934,9.011 C8.282,6.704 8.599,5.666 8.88,4.749 C9.104,4.015 9.315,3.319 9.928,2.277 L10.352,1.557 L11.187,1.624 C27.749,2.993 42.736,5.625 57.005,9.673 C65.24,11.474 66.806,12.783 66.7,14.431 C66.605,15.902 65.039,16.711 61.359,17.146 C65.367,16.971 69.013,16.612 72.4,16.063 C73.365,15.906 74.301,15.727 75.225,15.549 C77.657,15.082 79.955,14.641 82.482,14.641 C83.443,14.641 84.358,14.703 85.282,14.835 C91.593,15.729 96.481,16.183 99.811,16.183 C100.722,16.183 101.51,16.147 102.156,16.079 C102.549,16.037 102.853,16.017 103.077,16.017 C104.489,16.017 104.776,16.881 104.835,17.251 C104.935,17.88 104.916,18.339 103.696,18.998 C104.175,19.019 104.672,19.031 105.175,19.031 C106.535,19.031 107.78,18.94 108.872,18.763 C109.218,18.705 109.603,18.678 110.047,18.678 C116.358,18.678 134.03,24.923 137.645,27.571 C140.172,29.422 150.127,31.133 156.074,32.155 C157.675,32.43 159.072,32.669 160.107,32.872 C164.683,33.762 171.12,38.335 171.777,41.164 C171.976,42.016 171.709,42.818 171.065,43.307 C170.638,43.63 169.996,44.019 169.254,44.467 C168.65,44.832 167.638,45.445 166.892,45.977 C167.792,46.28 167.925,47.01 167.942,47.26 C168.014,48.236 168.088,49.245 157.199,51.982 C155.154,52.496 151.841,52.571 150.048,52.571 C144.485,52.571 137.27,51.891 134.572,50.397 C133.507,49.806 131.946,49.493 130.059,49.493 C128.736,49.493 127.53,49.645 126.79,49.764 C126.088,52.039 124.022,58.035 121.252,59.829 C117.745,62.244 115.527,67.466 113.746,71.662 C112.863,73.741 112.1,75.537 111.266,76.859 C109.453,80.305 106.066,82.36 102.191,82.36 L102.191,82.36 Z" id="path2722" fill="#FFFFFF"></path>
                        <path d="M11.075,2.955 C26.497,4.228 41.745,6.731 56.638,10.957 C68.555,13.565 66.81,15.346 60.094,15.936 C59.607,16.001 58.113,16.024 55.998,16.024 C53.758,16.024 50.823,15.999 47.655,15.974 C44.485,15.949 41.08,15.923 37.903,15.923 C34.594,15.923 31.533,15.95 29.239,16.033 C21.327,16.318 27.971,17.592 30.905,17.699 C38.837,17.993 47.075,18.604 55.327,18.604 C61.117,18.604 66.914,18.303 72.612,17.379 C76.043,16.823 79.123,15.975 82.482,15.975 C83.33,15.975 84.197,16.029 85.091,16.156 C88.779,16.678 95.25,17.516 99.809,17.516 C100.727,17.516 101.569,17.482 102.294,17.405 C102.627,17.37 102.884,17.353 103.074,17.353 C105.353,17.353 98.08,19.71 98.08,19.71 C98.08,19.71 101.406,20.365 105.171,20.365 C106.462,20.365 107.805,20.288 109.082,20.081 C109.36,20.036 109.681,20.015 110.042,20.015 C116.18,20.015 133.579,26.249 136.854,28.648 C140.319,31.189 154.661,33.172 159.85,34.182 C165.038,35.192 171.916,40.988 170.256,42.247 C168.592,43.509 161.758,46.746 166.201,47.19 C168.392,47.41 161.285,49.581 156.871,50.69 C155.393,51.06 152.877,51.239 150.048,51.239 C144.423,51.239 137.567,50.533 135.217,49.231 C133.719,48.401 131.788,48.162 130.061,48.162 C127.713,48.162 125.741,48.603 125.741,48.603 C125.741,48.603 123.446,56.821 120.527,58.709 C114.894,62.59 112.609,72.29 110.104,76.202 C108.397,79.481 105.233,81.025 102.191,81.025 C100.093,81.025 98.053,80.29 96.59,78.883 C94.811,77.513 94.831,76.622 96.365,76.622 C97.532,76.622 99.576,77.138 102.37,78.351 C106.748,78.346 110.028,70.577 111.357,66.146 C112.689,61.715 114.342,59.351 117.906,56.9 C121.469,54.449 123.464,45.859 120.866,41.046 C116.879,35.681 112.503,33.511 108.252,33.511 C100.299,33.511 92.789,41.111 89.114,49.606 C87.115,50.566 74.168,51.379 69.358,51.379 C68.043,51.379 67.336,51.317 67.628,51.183 C70.665,49.262 72.179,48.245 75.228,46.294 C75.405,46.232 75.481,46.203 75.471,46.203 C75.346,46.203 63.22,50.174 59.791,51.469 C56.812,52.594 51.133,53.614 47.1,53.614 C46.094,53.614 45.19,53.551 44.457,53.41 C40.78,52.705 10.958,52.021 4.077,52.021 C0.926,52.021 5.464,47.474 5.576,43.908 C7.28,43.83 15.055,43.219 15.055,43.219 C15.055,43.219 8.25,41.692 6.077,41.192 C6.033,41.195 5.99,41.196 5.948,41.196 C3.456,41.196 4.01,36.64 4.522,32.472 C4.84,29.889 8.05,29.385 10.51,29.385 C12.087,29.385 13.355,29.592 13.355,29.592 C13.355,29.592 11.564,29.022 7.31,24.838 C4.025,21.736 5.628,13.884 8.082,9.683 C10.538,5.483 9.806,5.114 11.075,2.955 M5.579,43.859 C5.579,43.876 5.578,43.892 5.578,43.91 C5.462,43.915 5.374,43.918 5.319,43.918 C5.18,43.918 5.245,43.9 5.579,43.859 M9.626,0.16 L8.777,1.603 C8.086,2.78 7.829,3.62 7.602,4.361 C7.343,5.208 7.05,6.168 5.781,8.34 C2.943,13.199 0.884,22.402 5.458,26.757 C5.672,26.967 5.881,27.169 6.085,27.364 C2.755,28.518 2.028,30.932 1.878,32.147 C1.364,36.333 0.878,40.286 2.815,42.473 C2.852,42.516 2.89,42.557 2.929,42.597 C2.562,43.263 2.582,43.94 2.59,44.074 C2.604,44.304 2.651,44.537 2.728,44.763 C2.474,45.575 2.004,46.522 1.603,47.331 C0.655,49.244 -0.326,51.223 0.811,53.054 C1.19,53.664 2.118,54.689 4.081,54.689 C11.873,54.689 40.765,55.418 43.959,56.03 C44.829,56.197 45.887,56.282 47.104,56.282 C51.308,56.282 57.296,55.264 60.737,53.966 C61.69,53.606 63.312,53.041 65.155,52.414 C65.877,54.048 67.793,54.048 69.363,54.048 C71.837,54.048 87.204,53.486 90.273,52.012 L91.17,51.58 L91.565,50.667 C94.584,43.689 101.094,36.179 108.256,36.179 C111.972,36.179 115.454,38.297 118.606,42.474 C120.562,46.376 118.616,53.181 116.399,54.706 C112.371,57.476 110.314,60.369 108.807,65.381 C107.041,71.266 104.413,75.077 102.755,75.62 C100.781,74.806 98.271,73.959 96.367,73.959 C93.777,73.959 92.965,75.524 92.736,76.197 C92.194,77.788 92.906,79.373 94.852,80.909 C96.777,82.705 99.377,83.692 102.193,83.692 C106.484,83.692 110.389,81.338 112.414,77.541 C113.298,76.132 114.077,74.3 114.975,72.186 C116.685,68.159 118.812,63.148 122.019,60.922 C124.847,59.056 126.844,53.957 127.812,50.97 C128.446,50.894 129.23,50.829 130.063,50.829 C131.723,50.829 133.059,51.083 133.927,51.564 C137.262,53.413 145.632,53.906 150.051,53.906 C152.315,53.906 155.449,53.797 157.522,53.277 C159.675,52.736 162.17,52.022 164.035,51.413 C166.942,50.464 169.453,49.643 169.272,47.165 C169.249,46.847 169.165,46.507 169.011,46.181 C169.362,45.962 169.694,45.762 169.943,45.612 C170.718,45.143 171.388,44.738 171.869,44.373 C172.946,43.557 173.397,42.245 173.076,40.866 C172.236,37.252 165.085,32.486 160.361,31.566 C159.305,31.361 157.914,31.122 156.303,30.845 C151.24,29.976 140.705,28.166 138.432,26.499 C134.613,23.701 116.703,17.351 110.044,17.35 C109.53,17.35 109.076,17.383 108.657,17.451 C107.911,17.572 107.085,17.649 106.193,17.682 C106.2,17.482 106.186,17.27 106.151,17.046 C106.113,16.805 105.703,14.688 103.076,14.688 C102.784,14.688 102.436,14.709 102.014,14.754 C101.415,14.818 100.674,14.851 99.811,14.851 C96.54,14.851 91.714,14.403 85.467,13.517 C84.483,13.377 83.508,13.31 82.484,13.31 C79.831,13.31 77.364,13.784 74.978,14.242 C74.069,14.416 73.129,14.596 72.188,14.749 C70.801,14.974 69.368,15.167 67.884,15.327 C67.962,15.078 68.011,14.809 68.03,14.518 C68.232,11.365 64.572,9.969 57.291,8.371 C42.963,4.311 27.917,1.672 11.296,0.299 L9.626,0.16 L9.626,0.16 Z" id="path2724" fill="#000000"></path>
                    </g>
                </g>
                <path d="M114.637,110.887 C114.791,110.905 115.424,111.016 115.829,111.441 C116.28,112.023 116.661,112.544 116.887,113.104 C117.055,113.853 117.274,114.471 117.153,115.184 C116.899,115.883 116.558,116.379 116.093,116.847 C115.569,117.494 115.187,117.824 114.636,118.234 C114.022,118.524 113.433,119.09 112.914,119.342 C112.666,119.68 112.028,119.927 111.723,120.312 C111.37,120.786 111.098,121.021 111.06,121.699 C110.831,122.372 110.756,123.201 110.663,123.917 C110.533,124.703 110.348,125.441 110.266,126.136 C109.936,126.728 109.574,127.032 108.809,127.243 C108.177,127.356 107.522,127.382 106.823,127.382 C106.427,127.004 105.753,126.577 105.366,126.136 C105.366,125.767 105.366,125.396 105.366,125.027" id="path817_1_" stroke="#FFFFFF" stroke-width="3.3722" stroke-linecap="round"></path>
                <path d="M104.476,107.94 C107.863,102.49 128.195,92.33 123.039,111.769 C121.861,113.831 124.07,114.715 124.66,113.243 C130.109,90.267 107.568,99.986 103.888,106.025 C102.414,108.529 103.6,107.941 103.6,107.795 L103.6,107.795 L104.476,107.94 Z" id="path818_1_" stroke="#FFFFFF" stroke-width="1.333" fill="#FFFFFF" fill-rule="nonzero"></path>
                <path d="M30.053,84.488 C38.007,84.342 46.4,84.783 52.88,88.906 C59.359,93.03 66.175,95.195 72.026,94.208 C78.853,93.057 82.483,94.355 82.483,94.355 L82.483,94.355" id="path823_1_" stroke="#000000" stroke-width="2.6659" stroke-linecap="round"></path>
                <path d="M128.561,88.437 C143.006,92.694 145.614,94.076 151.836,97.398 C158.057,100.719 160.295,101.178 165.531,103.942 C169.415,105.859 172.369,106.192 172.369,106.192 C175.764,108.468 157.198,99.516 146.33,102.93 C142.281,103.253 141.658,103.303 137.592,99.492 C133.528,95.679 128.889,92.549 122.457,90.516 C116.026,88.483 104.797,85.243 104.797,85.243" id="path824_1_" stroke="#000000" stroke-width="2.7737" stroke-linecap="round"></path>
                <path d="M139.806,109.595 C140.611,109.595 143.964,109.467 145.252,109.897 C146.377,110.049 148.178,110.196 149.186,110.502 C150.899,110.705 152.475,111.062 154.331,111.107 C156.327,111.125 157.036,111.734 158.87,112.014 C159.443,112.731 160.526,113.591 161.292,114.133" id="path826_1_" stroke="#000000" stroke-width="2.3327" stroke-linecap="round"></path>
                <g id="g895_1_" transform="translate(171.500000, 12.250000)" stroke="#000000" stroke-width="2.6659">
                    <path d="M41.045,8.68 C41.201,10.397 41.742,17.903 40.993,17.985 C36.758,18.59 33.834,19.3 30.203,22.932 C26.572,26.564 18.262,32.746 13.55,24.26 C11.129,19.417 17.026,17.153 20.052,17.153 C23.026,17.049 27.698,14.753 32.539,13.542 C37.382,12.331 39.346,9.22 39.951,9.825 L41.045,8.68 L41.045,8.68 Z" id="path865_1_"></path>
                    <g id="g885_1_">
                        <path d="M60.126,27.217 C60.789,26.852 63.93,22.656 62.305,17.544 C59.95,14.011 72.967,21.346 70.219,25.272 C66.743,27.979 59.856,27.945 60.126,27.217 L60.126,27.217 Z" id="path863_1_"></path>
                        <g id="g877_1_">
                            <path d="M29.125,10.833 C29.068,10.033 28.973,2.873 29.094,1.292 C31.528,0.928 38.729,-0.118 40.299,2.236 C45.883,10.674 29.622,14.875 29.23,13.697 L29.125,10.833 L29.125,10.833 Z" id="path864_1_"></path>
                            <g id="g871_1_" transform="translate(0.000000, 18.000000)">
                                <path d="M15.994,9.746 L26.198,45.068 C26.198,45.068 31.958,70.141 14.425,76.859 C8.93,77.252 6.968,76.466 6.968,76.466 L8.538,85.099 C16.321,93.126 21.339,91.23 28.012,88.483 C34.683,85.736 34.954,85.519 38.487,83.558 C42.019,81.595 46.888,70.534 47.43,67.39 C48.945,59.257 54.057,43.284 69.409,9.355 C66.64,9.111 48.581,10.935 47.364,10.935 C46.756,11.909 43.918,16.548 39.543,18.38 C34.74,20.343 27.82,14.686 34.834,10.139 C38.262,7.954 49.633,10.529 49.421,4.589 C49.132,-0.571 41.505,-0.065 38.365,0.328 C35.225,0.72 30.909,4.253 28.945,6.214 C24.551,10.609 18.348,11.316 15.994,9.746 L15.994,9.746 L15.994,9.746 L15.994,9.746 L15.994,9.746 Z" id="path862_1_"></path>
                                <g id="g867_1_" transform="translate(0.000000, 86.000000)">
                                    <path d="M0.294,7.734 C2.648,11.659 5.004,16.368 6.183,22.647 C7.36,28.927 10.759,37.711 19.527,39.917 C26.59,41.878 32.87,45.019 34.44,50.513 C36.009,56.007 37.131,63.017 37.131,62.895 L48.054,47.44 C47.932,45.373 47.849,40.337 47.849,34.45 C47.729,25.888 41.382,23.799 35.103,21.443 C28.824,19.089 21.786,16.165 19.825,12.632 C17.862,9.1 12.854,3.026 10.108,0.67 C7.36,-1.684 0.294,7.734 0.294,7.734 L0.294,7.734 L0.294,7.734 L0.294,7.734 Z" id="path859_1_"></path>
                                    <path d="M11.84,80.591 C17.906,91.499 19.295,105.505 21.789,115.942 C26.118,107.72 32.857,101.859 39.961,97.244 C40.377,89.057 42.451,77.756 44.806,74.224 C56.18,57.648 48.176,48.159 48.176,48.159 C36.809,61.507 36.418,71.056 11.86,80.57 L11.84,80.591 L11.84,80.591 L11.84,80.591 Z" id="path860_1_"></path>
                                    <path d="M1.03,114.306 C0.718,117.015 4.341,126.427 10.473,126.847 C16.496,127.26 19.971,122.626 21.073,117.21 L18.055,99.018 L1.03,114.306 L1.03,114.306 Z" id="path866_1_"></path>
                                </g>
                            </g>
                        </g>
                    </g>
                </g>
                <path d="M172.987,108.73 C171.777,105.402 173.592,105.402 176.921,106.914 C182.369,110.243 178.435,118.716 172.383,120.532 C169.054,122.046 167.237,118.11 172.08,116.297 C176.62,115.086 172.987,108.428 172.987,108.73 L173.291,108.73 L172.987,108.73 L172.987,108.73 Z" id="path912_1_" stroke="#000000" stroke-width="1.333" fill="#FFFFFF" fill-rule="nonzero"></path>
                <path d="M211.827,161.681 C211.827,161.818 211.827,161.954 211.827,162.091 C211.827,160.984 211.807,161.546 212.13,163.733 C212.13,165.953 212.296,167.819 212.433,169.89 C212.433,171.605 212.23,172.833 212.13,174.404" id="path955_1_" stroke="#000000" stroke-width="1.6662"></path>
                <path d="M208.8,163.729 C208.8,163.979 208.8,164.229 208.8,164.479 C208.8,163.092 208.761,163.485 209.104,165.602 C209.225,167.715 209.649,168.817 209.709,170.85 C209.709,172.911 209.463,174.511 209.405,176.47" id="path956_1_" stroke="#000000" stroke-width="1.6662"></path>
                <path d="M207.288,208.851 C207.389,208.851 207.49,208.851 207.59,208.851 C207.51,209.136 207.59,210.757 207.59,211.84 C207.59,213.472 207.56,215.065 207.288,216.112" id="path957_1_" stroke="#000000" stroke-width="1.6662"></path>
                <path d="M203.959,210.362 C203.959,210.564 203.959,210.766 203.959,210.967 L203.959,210.362 C203.959,210.564 203.959,210.766 203.959,210.967 L203.959,210.362 C204.023,212.598 204.261,213.836 204.261,216.112 C204.261,216.809 204.393,217.337 203.959,217.626" id="path958_1_" stroke="#000000" stroke-width="1.6662"></path>
                <path d="M200.932,212.179 C201.057,214.617 201.463,216.212 201.537,218.714 C201.537,219.974 201.285,220.112 201.235,221.257" id="path960_1_" stroke="#000000" stroke-width="1.6662"></path>
                <path d="M197.301,214.022 C197.301,214.149 197.301,214.277 197.301,214.405 C197.301,213.372 197.281,213.897 197.604,215.934 C197.659,217.812 197.907,218.825 197.907,220.905 C197.85,222.902 197.409,223.735 197.302,225.493" id="path961_1_" stroke="#000000" stroke-width="1.6662"></path>
                <path d="M194.579,215.206 C194.579,215.745 194.742,217.844 194.882,219.139 C194.882,220.552 194.882,221.964 194.882,223.374 C194.714,224.786 194.405,226.301 193.974,227.31 C193.974,227.612 193.974,227.914 193.974,228.217" id="path963_1_" stroke="#000000" stroke-width="1.6662"></path>
                <path d="M214.854,162.347 C214.93,162.915 215.378,165.085 214.854,166.481 C214.854,167.714 214.711,168.345 214.55,169.236" id="path977_1_" stroke="#000000" stroke-width="1.6662"></path>
                <path d="M179.911,110.021 C183.972,110.854 193.864,110.021 197.822,107.105 C201.779,104.189 201.779,104.189 201.779,104.189" id="path978_1_" stroke="#000000" stroke-width="1.333"></path>
                <path d="M179.924,112.012 C183.803,113.475 193.703,114.211 198.07,111.955 C202.438,109.699 202.438,109.699 202.438,109.699" id="path979_1_" stroke="#000000" stroke-width="1.333"></path>
                <path d="M179.598,117.311 C181.68,119.81 183.138,121.059 183.763,124.392 C184.387,127.725 184.387,127.725 184.387,127.725" id="path980_1_" stroke="#000000" stroke-width="1.333"></path>
                <path d="M177.098,118.561 C179.598,122.101 181.263,123.35 182.096,126.891 C182.93,130.432 182.93,130.432 182.93,130.432" id="path981_1_" stroke="#000000" stroke-width="1.333"></path>
                <path d="M175.016,120.851 C176.057,126.266 180.223,136.472 183.346,139.804 C186.471,143.136 186.471,143.136 186.471,143.136" id="path982_1_" stroke="#000000" stroke-width="1.333"></path>
                <path d="M217.742,52.481 C217.436,55.009 217.283,59.987 218.202,63.127 C219.12,66.267 219.12,66.267 219.12,66.267" id="path986_1_" stroke="#000000" stroke-width="1.333"></path>
                <path d="M225.094,44.518 C223.332,45.131 220.729,46.51 219.887,47.658 C219.045,48.807 219.045,48.807 219.045,48.807" id="path987_1_" stroke="#000000" stroke-width="1.333"></path>
                <path d="M203.839,46.785 C207.633,53.453 206.455,75.239 205.67,77.721 C204.886,80.201 204.886,80.201 204.886,80.201" id="path988_1_" stroke="#000000" stroke-width="1.753"></path>
                <path d="M191.469,33.271 C189.907,33.792 186.678,36.343 186.418,37.749" id="path989_1_" stroke="#000000" stroke-width="1.333"></path>
                <path d="M193.969,35.094 C192.407,35.614 189.178,38.165 188.918,39.572" id="path990_1_" stroke="#000000" stroke-width="1.333"></path>
                <circle id="circle2762" stroke="#FFFFFF" stroke-width="5.3319" cx="112.163" cy="145.348" r="12.441"></circle>
                <polygon id="polygon2764" fill="#000000" fill-rule="nonzero" points="115.051 136.462 116.162 134.905 117.273 133.13 118.606 131.573 118.828 130.019 119.05 127.131 116.606 126.02 113.274 127.131 111.941 128.686 113.052 130.239 113.497 131.573 113.052 133.572 112.385 134.905 111.497 136.017"></polygon>
            </g>
            <g id="g2766" transform="translate(716.000000, 29.000000)">
                <path d="M178.781,190.537 C157.444,200.404 152.228,213.399 142.807,223.765 C133.384,234.129 119.336,256.427 92.01,248.888 C91.155,243.304 87.625,227.903 77.322,220.938 C70.955,217.06 63.187,211.516 61.773,202.092 C50.466,204.92 22.153,207.181 20.787,192.199 C20.316,187.017 24.756,179.078 20.008,173.612 C18.936,173.646 12.928,173.765 11.351,173.031 C9.703,171.084 11.33,163.998 12.526,162.425 L12.512,162.36 C9.691,162.102 2.414,155.453 11.366,150.741 C13.727,147.967 13.313,145.699 13.305,143.14 C11.826,143.161 8.192,143.119 7.659,143.084 C-1.776,143.049 -0.564,136.961 2.155,130.482 C4.038,126.242 14.664,105.983 16.548,103.157 C18.433,100.33 18.433,98.917 17.019,96.09 C15.606,93.264 16.078,88.552 17.019,85.255 C17.962,81.958 19.847,76.776 18.433,75.361 C17.019,73.948 17.491,69.236 17.962,68.295 C18.433,67.352 18.433,64.997 18.433,64.055 C18.433,63.113 18.904,60.757 20.318,59.816 C21.73,58.873 22.673,55.575 21.73,54.632 C20.789,53.691 27.855,45.21 29.269,41.913 C29.102,37.26 32.755,31.98 34.922,29.663 C36.335,28.249 35.864,23.538 35.864,23.538 L40.009,23.633 C40.46,23.482 43.872,18.827 47.171,17.884 C50.468,16.942 58.007,13.173 58.007,13.173 L63.189,7.52 L67.9,9.874 C67.9,9.874 71.67,8.462 74.967,7.99 C78.265,7.519 85.331,5.163 87.687,1.395 C90.042,-2.375 89.572,5.88 89.647,6.332 C89.948,6.406 93.812,4.221 100.407,4.692 C107.003,5.163 114.541,7.99 116.897,7.048 C119.251,6.105 121.609,8.933 121.609,8.933 C121.609,8.933 126.319,11.759 130.088,11.759 C133.857,11.759 137.154,11.759 137.154,11.759 L137.625,15.056 C137.625,15.056 144.692,17.487 147.989,18.901 C151.287,20.313 154.114,22.123 158.353,22.593 C162.593,23.065 164.007,24.478 164.007,24.478 L162.122,28.247 C162.122,28.247 167.21,29.285 168.718,34.372 C171.545,38.141 175.314,44.266 178.141,44.736 C180.966,45.207 182.852,46.621 182.852,46.621 L179.083,51.332 C179.083,51.332 180.024,52.746 181.909,54.63 C183.794,56.515 187.562,59.814 187.562,59.814 L185.206,64.053 C185.206,64.053 185.206,64.995 185.678,67.35 C186.15,69.706 186.15,73.946 188.505,74.888 C190.859,75.831 190.859,78.657 190.859,78.657 C190.859,78.657 191.331,79.128 188.505,80.071 C185.678,81.013 183.794,81.013 185.206,82.897 C186.62,84.782 188.977,88.08 188.977,88.08 C188.977,88.08 186.621,89.492 184.265,89.963 C181.91,90.435 179.554,90.435 179.554,90.435 C179.554,90.435 181.439,99.387 183.324,100.799 C185.207,102.213 180.496,103.155 177.67,101.741 C174.843,100.327 176.609,105.981 178.494,106.452 C180.379,106.923 177.809,107.583 175.597,107.606 C173.712,107.135 171.287,107.465 172.369,110.245 C173.783,114.013 175.314,115.875 171.546,117.759 C167.777,119.644 164.36,128.124 166.245,130.95 C168.13,133.776 169.189,138.017 169.189,138.017 L160.238,138.488 C160.238,138.488 159.625,139.901 161.982,142.257 C164.336,144.613 166.693,147.298 166.363,147.957 C166.433,148.977 159.273,148.562 159.344,149.583 C165.436,179.697 179.906,188.144 179.927,189.729 L178.781,190.537 L178.781,190.537 L178.781,190.537 L178.781,190.537 L178.781,190.537 L178.781,190.537 L178.781,190.537 L178.781,190.537 L178.781,190.537 L178.781,190.537 L178.781,190.537 L178.781,190.537 L178.781,190.537 L178.781,190.537 L178.781,190.537 L178.781,190.537 L178.781,190.537 L178.781,190.537 L178.781,190.537 Z" id="path809_3_" stroke="#000000" stroke-width="1.333" fill="#000000" fill-rule="nonzero"></path>
                <g id="g2769" transform="translate(9.000000, 60.000000)" fill-rule="nonzero">
                    <g id="g2771">
                        <path d="M101.923,82.365 C99.468,82.365 97.117,81.47 95.46,79.907 C94.842,79.43 93.221,78.125 93.73,76.631 C93.9,76.133 94.434,75.298 96.1,75.298 C97.551,75.298 99.706,75.89 102.347,77.013 C105.253,76.702 108.235,71.041 109.815,65.771 C111.245,61.023 113.095,58.417 116.886,55.809 C119.862,53.763 121.709,46.052 119.47,41.766 C116.035,37.179 112.172,34.851 107.988,34.851 C100.226,34.851 93.26,42.779 90.074,50.144 L89.877,50.599 L89.429,50.816 C87.025,51.971 73.303,52.72 69.093,52.72 C67.387,52.72 66.258,52.72 65.998,51.539 L65.815,50.7 C63.404,51.511 61.175,52.28 59.998,52.724 C56.743,53.954 50.84,54.954 46.837,54.954 C45.705,54.954 44.731,54.877 43.942,54.726 C40.448,54.054 10.794,53.361 3.815,53.361 C2.563,53.361 1.962,52.816 1.676,52.357 C0.932,51.157 1.638,49.732 2.53,47.93 C2.992,46.996 3.499,45.976 3.773,45.034 L3.653,43.997 C3.635,43.72 3.683,43.321 4.007,43.007 L4.018,42.638 L4.807,42.601 C4.912,42.578 5.027,42.556 5.151,42.541 L5.156,42.586 L5.25,42.582 C5.386,42.576 5.56,42.567 5.766,42.554 C5.738,42.547 5.71,42.541 5.682,42.534 C4.828,42.534 4.089,42.208 3.546,41.594 C2.007,39.855 2.457,36.193 2.937,32.314 C3.113,30.88 4.115,28.57 8.642,28.13 C7.909,27.504 7.069,26.735 6.112,25.795 C2.23,22.131 3.937,13.692 6.668,9.017 C8.014,6.711 8.332,5.673 8.61,4.758 C8.836,4.019 9.048,3.324 9.663,2.283 L10.088,1.562 L10.921,1.63 C27.486,2.998 42.473,5.631 56.737,9.68 C64.971,11.479 66.539,12.788 66.433,14.437 C66.336,15.907 64.771,16.719 61.09,17.15 C65.098,16.976 68.744,16.618 72.134,16.068 C73.096,15.911 74.031,15.731 74.952,15.555 C77.387,15.087 79.683,14.647 82.215,14.647 C83.174,14.647 84.091,14.709 85.012,14.84 C91.332,15.736 96.224,16.188 99.547,16.188 C100.455,16.188 101.243,16.154 101.887,16.085 C102.283,16.042 102.584,16.025 102.81,16.025 C104.221,16.025 104.508,16.886 104.566,17.257 C104.666,17.886 104.646,18.343 103.428,19.002 C103.909,19.023 104.403,19.036 104.906,19.036 C106.266,19.036 107.511,18.946 108.604,18.768 C108.95,18.712 109.334,18.684 109.776,18.684 C116.088,18.684 133.761,24.929 137.377,27.576 C139.905,29.431 149.868,31.142 155.823,32.163 C157.418,32.438 158.808,32.676 159.839,32.876 C164.416,33.767 170.852,38.339 171.511,41.168 C171.708,42.022 171.443,42.823 170.798,43.313 C170.371,43.637 169.729,44.023 168.988,44.472 C168.384,44.837 167.37,45.449 166.625,45.983 C167.524,46.284 167.657,47.016 167.675,47.265 C167.745,48.242 167.821,49.253 156.931,51.985 C154.887,52.498 151.571,52.575 149.778,52.575 C144.215,52.575 137.002,51.895 134.307,50.401 C133.243,49.811 131.68,49.499 129.792,49.499 C128.47,49.499 127.262,49.651 126.521,49.77 C125.822,52.045 123.758,58.041 120.985,59.833 C117.482,62.248 115.264,67.469 113.482,71.661 C112.596,73.75 111.828,75.556 110.988,76.88 C109.173,80.317 105.789,82.365 101.923,82.365 L101.923,82.365 Z" id="path2773" fill="#FFFFFF"></path>
                        <path d="M10.81,2.96 C26.232,4.233 41.48,6.737 56.372,10.962 C68.29,13.57 66.544,15.351 59.828,15.941 C59.341,16.007 57.847,16.029 55.731,16.029 C53.492,16.029 50.558,16.004 47.39,15.979 C44.218,15.954 40.813,15.929 37.635,15.929 C34.327,15.929 31.266,15.956 28.973,16.039 C21.061,16.324 27.704,17.598 30.639,17.705 C38.569,17.999 46.808,18.61 55.059,18.61 C60.849,18.61 66.647,18.309 72.346,17.385 C75.777,16.829 78.858,15.98 82.216,15.981 C83.065,15.981 83.931,16.035 84.824,16.162 C88.512,16.684 94.981,17.523 99.541,17.523 C100.46,17.523 101.302,17.489 102.027,17.411 C102.36,17.375 102.617,17.359 102.807,17.359 C105.085,17.359 97.813,19.716 97.813,19.716 C97.813,19.716 101.139,20.372 104.905,20.372 C106.195,20.372 107.538,20.295 108.815,20.088 C109.092,20.043 109.414,20.022 109.774,20.022 C115.911,20.022 133.312,26.256 136.586,28.655 C140.051,31.195 154.393,33.179 159.582,34.189 C164.77,35.199 171.648,40.995 169.988,42.255 C168.324,43.516 161.49,46.754 165.933,47.198 C168.124,47.417 161.017,49.588 156.603,50.697 C155.125,51.068 152.608,51.246 149.779,51.246 C144.154,51.246 137.299,50.54 134.949,49.239 C133.451,48.408 131.52,48.169 129.793,48.169 C127.445,48.169 125.473,48.611 125.473,48.611 C125.473,48.611 123.178,56.829 120.259,58.718 C114.626,62.598 112.341,72.299 109.835,76.21 C108.129,79.489 104.964,81.033 101.922,81.033 C99.824,81.033 97.784,80.299 96.322,78.892 C94.543,77.521 94.563,76.631 96.097,76.631 C97.264,76.631 99.308,77.147 102.102,78.359 C106.481,78.354 109.76,70.584 111.09,66.154 C112.421,61.723 114.074,59.358 117.639,56.907 C121.202,54.455 123.197,45.866 120.599,41.053 C116.613,35.688 112.237,33.518 107.986,33.518 C100.033,33.518 92.523,41.119 88.848,49.613 C86.849,50.573 73.902,51.386 69.092,51.386 C67.777,51.386 67.07,51.325 67.362,51.19 C70.399,49.269 71.913,48.253 74.962,46.301 C75.139,46.239 75.215,46.211 75.204,46.211 C75.081,46.211 62.953,50.182 59.524,51.477 C56.545,52.602 50.867,53.622 46.834,53.622 C45.828,53.622 44.924,53.559 44.19,53.417 C40.513,52.712 10.692,52.028 3.811,52.028 C0.66,52.028 5.198,47.481 5.31,43.914 C7.013,43.836 14.789,43.226 14.789,43.226 C14.789,43.226 7.983,41.698 5.811,41.198 C5.767,41.201 5.724,41.202 5.681,41.202 C3.19,41.202 3.743,36.646 4.255,32.478 C4.573,29.895 7.784,29.391 10.244,29.391 C11.82,29.391 13.088,29.598 13.088,29.598 C13.088,29.598 11.297,29.028 7.042,24.845 C3.757,21.743 5.36,13.89 7.814,9.689 C10.268,5.488 9.54,5.12 10.81,2.96 M5.313,43.865 C5.313,43.882 5.312,43.899 5.312,43.915 C5.196,43.92 5.108,43.923 5.052,43.923 C4.915,43.923 4.979,43.906 5.313,43.865 M9.36,0.166 L8.511,1.609 C7.82,2.785 7.562,3.626 7.335,4.367 C7.076,5.213 6.783,6.173 5.515,8.345 C2.676,13.204 0.617,22.411 5.194,26.765 C5.408,26.974 5.615,27.176 5.818,27.369 C2.489,28.523 1.761,30.937 1.612,32.152 C1.097,36.338 0.612,40.29 2.548,42.479 C2.585,42.521 2.624,42.562 2.663,42.604 C2.296,43.27 2.315,43.946 2.323,44.079 C2.338,44.309 2.384,44.542 2.462,44.769 C2.207,45.58 1.737,46.528 1.337,47.337 C0.389,49.251 -0.593,51.229 0.544,53.06 C0.923,53.671 1.851,54.695 3.814,54.695 C11.606,54.695 40.497,55.424 43.691,56.036 C44.56,56.203 45.619,56.288 46.837,56.288 C51.041,56.288 57.029,55.27 60.469,53.971 C61.421,53.612 63.044,53.047 64.889,52.42 C65.61,54.053 67.526,54.053 69.096,54.053 C71.57,54.053 86.937,53.492 90.006,52.017 L90.903,51.586 L91.298,50.672 C94.317,43.694 100.827,36.184 107.989,36.184 C111.705,36.184 115.186,38.302 118.339,42.478 C120.293,46.38 118.349,53.186 116.132,54.711 C112.105,57.48 110.047,60.374 108.54,65.387 C106.774,71.27 104.145,75.082 102.488,75.626 C100.513,74.812 98.004,73.965 96.1,73.965 C93.51,73.965 92.698,75.53 92.468,76.203 C91.926,77.793 92.639,79.378 94.584,80.915 C96.508,82.711 99.108,83.698 101.924,83.698 C106.215,83.698 110.12,81.344 112.146,77.546 C113.031,76.136 113.809,74.304 114.707,72.19 C116.417,68.164 118.544,63.157 121.747,60.931 C124.577,59.066 126.577,53.964 127.545,50.975 C128.179,50.899 128.964,50.834 129.796,50.834 C131.456,50.834 132.792,51.088 133.659,51.569 C136.995,53.418 145.363,53.911 149.782,53.911 C152.047,53.911 155.181,53.802 157.255,53.282 C159.406,52.741 161.901,52.027 163.768,51.418 C166.675,50.469 169.187,49.649 169.005,47.17 C168.982,46.852 168.899,46.512 168.743,46.185 C169.096,45.966 169.429,45.765 169.678,45.614 C170.452,45.146 171.12,44.742 171.602,44.378 C172.679,43.56 173.13,42.249 172.81,40.87 C171.969,37.256 164.819,32.49 160.095,31.57 C159.039,31.364 157.648,31.126 156.037,30.849 C150.974,29.979 140.438,28.17 138.165,26.503 C134.347,23.706 116.436,17.354 109.776,17.354 C109.262,17.354 108.808,17.387 108.389,17.455 C107.644,17.576 106.819,17.653 105.926,17.686 C105.933,17.485 105.919,17.274 105.883,17.05 C105.846,16.808 105.435,14.692 102.809,14.692 C102.516,14.692 102.168,14.713 101.746,14.759 C101.146,14.823 100.405,14.856 99.543,14.856 C96.273,14.856 91.448,14.407 85.2,13.522 C84.217,13.383 83.241,13.315 82.218,13.315 C79.564,13.315 77.096,13.789 74.709,14.247 C73.801,14.421 72.861,14.601 71.921,14.754 C70.532,14.979 69.098,15.172 67.61,15.333 C67.692,15.084 67.744,14.815 67.762,14.524 C67.964,11.37 64.304,9.975 57.021,8.377 C42.694,4.317 27.649,1.677 11.03,0.305 L9.36,0.166 L9.36,0.166 Z" id="path2775" fill="#000000"></path>
                    </g>
                </g>
                <path d="M114.371,110.892 C114.524,110.91 115.157,111.022 115.563,111.446 C116.014,112.028 116.395,112.549 116.622,113.11 C116.79,113.859 117.009,114.477 116.888,115.189 C116.634,115.888 116.293,116.384 115.827,116.853 C115.304,117.501 114.922,117.83 114.371,118.24 C113.757,118.53 113.169,119.096 112.649,119.349 C112.401,119.686 111.762,119.933 111.458,120.318 C111.105,120.792 110.833,121.027 110.796,121.705 C110.567,122.378 110.491,123.207 110.399,123.923 C110.269,124.709 110.084,125.447 110.002,126.142 C109.672,126.734 109.31,127.038 108.545,127.25 C107.913,127.363 107.258,127.389 106.559,127.389 C106.164,127.011 105.49,126.583 105.103,126.142 C105.103,125.772 105.103,125.402 105.103,125.033" id="path817_3_" stroke="#FFFFFF" stroke-width="3.3722" stroke-linecap="round"></path>
                <path d="M104.21,107.946 C107.597,102.496 127.929,92.336 122.774,111.776 C121.595,113.838 123.804,114.722 124.394,113.249 C129.843,90.274 107.302,99.992 103.622,106.031 C102.147,108.534 103.334,107.947 103.334,107.8 L103.334,107.8 L104.21,107.946 Z" id="path818_3_" stroke="#FFFFFF" stroke-width="1.333" fill="#FFFFFF" fill-rule="nonzero"></path>
                <path d="M29.787,84.494 C37.741,84.347 46.134,84.788 52.614,88.912 C59.093,93.036 65.909,95.201 71.76,94.214 C78.587,93.063 82.217,94.361 82.217,94.361 L82.217,94.361" id="path823_3_" stroke="#000000" stroke-width="2.6659" stroke-linecap="round"></path>
                <path d="M128.295,88.442 C142.74,92.699 145.348,94.081 151.57,97.403 C157.791,100.724 160.029,101.183 165.265,103.947 C169.149,105.864 172.103,106.197 172.103,106.197 C175.498,108.473 156.932,99.521 146.064,102.935 C142.015,103.258 141.392,103.308 137.326,99.497 C133.262,95.683 128.623,92.554 122.192,90.521 C115.76,88.487 104.531,85.248 104.531,85.248" id="path824_3_" stroke="#000000" stroke-width="2.7737" stroke-linecap="round"></path>
                <path d="M139.54,109.6 C140.345,109.6 143.698,109.472 144.986,109.902 C146.111,110.054 147.912,110.2 148.92,110.507 C150.633,110.71 152.209,111.066 154.065,111.111 C156.061,111.13 156.77,111.738 158.604,112.019 C159.177,112.736 160.26,113.597 161.026,114.138" id="path826_3_" stroke="#000000" stroke-width="2.3327" stroke-linecap="round"></path>
                <g id="g895_3_" transform="translate(171.500000, 12.250000)" stroke="#000000" stroke-width="2.6659">
                    <path d="M40.779,8.685 C40.935,10.403 41.476,17.908 40.727,17.991 C36.492,18.596 33.568,19.306 29.937,22.938 C26.306,26.57 17.996,32.752 13.284,24.266 C10.863,19.424 16.76,17.159 19.786,17.159 C22.76,17.056 27.432,14.759 32.273,13.548 C37.116,12.337 39.08,9.226 39.685,9.831 L40.779,8.685 L40.779,8.685 Z" id="path865_3_"></path>
                    <g id="g885_3_">
                        <path d="M59.86,27.222 C60.523,26.857 63.664,22.662 62.039,17.549 C59.684,14.016 72.701,21.351 69.953,25.276 C66.477,27.985 59.59,27.951 59.86,27.222 L59.86,27.222 Z" id="path863_3_"></path>
                        <g id="g877_3_">
                            <path d="M28.859,10.838 C28.802,10.038 28.707,2.878 28.828,1.297 C31.262,0.932 38.463,-0.113 40.033,2.242 C45.617,10.679 29.356,14.881 28.964,13.702 L28.859,10.838 L28.859,10.838 Z" id="path864_3_"></path>
                            <g id="g871_3_" transform="translate(0.000000, 18.000000)">
                                <path d="M15.728,9.752 L25.932,45.074 C25.932,45.074 31.692,70.147 14.159,76.864 C8.664,77.257 6.702,76.471 6.702,76.471 L8.272,85.104 C16.055,93.131 21.073,91.235 27.746,88.488 C34.417,85.74 34.688,85.525 38.221,83.563 C41.753,81.601 46.622,70.539 47.164,67.395 C48.679,59.263 53.791,43.289 69.143,9.36 C66.374,9.116 48.315,10.94 47.098,10.94 C46.49,11.914 43.652,16.553 39.277,18.386 C34.474,20.349 27.554,14.692 34.568,10.145 C37.996,7.961 49.367,10.534 49.155,4.595 C48.866,-0.565 41.239,-0.059 38.099,0.335 C34.959,0.727 30.643,4.259 28.679,6.221 C24.285,10.615 18.082,11.322 15.728,9.752 L15.728,9.752 L15.728,9.752 L15.728,9.752 L15.728,9.752 Z" id="path862_3_"></path>
                                <g id="g867_3_" transform="translate(0.000000, 86.000000)">
                                    <path d="M0.028,7.739 C2.382,11.664 4.738,16.373 5.917,22.653 C7.094,28.933 10.493,37.716 19.261,39.922 C26.324,41.884 32.604,45.024 34.174,50.518 C35.743,56.013 36.865,63.022 36.865,62.9 L47.788,47.445 C47.666,45.378 47.583,40.342 47.583,34.455 C47.463,25.893 41.116,23.803 34.837,21.448 C28.558,19.095 21.52,16.17 19.559,12.638 C17.596,9.105 12.588,3.031 9.842,0.676 C7.094,-1.679 0.028,7.739 0.028,7.739 L0.028,7.739 L0.028,7.739 L0.028,7.739 Z" id="path859_3_"></path>
                                    <path d="M11.574,80.596 C17.64,91.505 19.029,105.511 21.523,115.947 C25.852,107.725 32.591,101.864 39.695,97.249 C40.111,89.062 42.185,77.761 44.54,74.229 C55.914,57.653 47.91,48.164 47.91,48.164 C36.543,61.512 36.152,71.061 11.594,80.575 L11.574,80.596 L11.574,80.596 L11.574,80.596 Z" id="path860_3_"></path>
                                    <path d="M0.764,114.312 C0.452,117.02 4.075,126.433 10.207,126.853 C16.23,127.266 19.705,122.632 20.807,117.215 L17.789,99.023 L0.764,114.312 L0.764,114.312 Z" id="path866_3_"></path>
                                </g>
                            </g>
                        </g>
                    </g>
                </g>
                <path d="M172.721,108.736 C171.511,105.407 173.326,105.407 176.655,106.92 C182.103,110.249 178.169,118.721 172.117,120.538 C168.788,122.052 166.971,118.116 171.814,116.302 C176.354,115.091 172.721,108.434 172.721,108.736 L173.025,108.736 L172.721,108.736 L172.721,108.736 Z" id="path912_3_" stroke="#000000" stroke-width="1.333" fill="#FFFFFF" fill-rule="nonzero"></path>
                <path d="M211.561,161.686 C211.561,161.823 211.561,161.959 211.561,162.096 C211.561,160.988 211.541,161.552 211.864,163.738 C211.864,165.958 212.03,167.824 212.167,169.895 C212.167,171.609 211.964,172.838 211.864,174.409" id="path955_3_" stroke="#000000" stroke-width="1.6662"></path>
                <path d="M208.534,163.735 C208.534,163.985 208.534,164.235 208.534,164.485 C208.534,163.098 208.495,163.49 208.838,165.608 C208.959,167.721 209.383,168.823 209.443,170.856 C209.443,172.917 209.197,174.518 209.139,176.477" id="path956_3_" stroke="#000000" stroke-width="1.6662"></path>
                <path d="M207.021,208.855 C207.122,208.855 207.223,208.855 207.323,208.855 C207.243,209.14 207.323,210.762 207.323,211.845 C207.323,213.477 207.293,215.07 207.021,216.117" id="path957_3_" stroke="#000000" stroke-width="1.6662"></path>
                <path d="M203.693,210.368 C203.693,210.57 203.693,210.772 203.693,210.973 L203.693,210.368 C203.693,210.57 203.693,210.772 203.693,210.973 L203.693,210.368 C203.757,212.605 203.995,213.842 203.995,216.118 C203.995,216.815 204.127,217.343 203.693,217.632" id="path958_3_" stroke="#000000" stroke-width="1.6662"></path>
                <path d="M200.666,212.184 C200.791,214.621 201.197,216.217 201.271,218.72 C201.271,219.979 201.019,220.118 200.969,221.262" id="path960_3_" stroke="#000000" stroke-width="1.6662"></path>
                <path d="M197.035,214.027 C197.035,214.154 197.035,214.282 197.035,214.41 C197.035,213.377 197.015,213.902 197.338,215.939 C197.393,217.817 197.641,218.83 197.641,220.91 C197.584,222.907 197.143,223.74 197.036,225.498" id="path961_3_" stroke="#000000" stroke-width="1.6662"></path>
                <path d="M194.312,215.211 C194.312,215.751 194.475,217.849 194.615,219.144 C194.615,220.557 194.615,221.969 194.615,223.38 C194.447,224.791 194.138,226.306 193.707,227.315 C193.707,227.617 193.707,227.919 193.707,228.222" id="path963_3_" stroke="#000000" stroke-width="1.6662"></path>
                <path d="M214.588,162.352 C214.664,162.921 215.112,165.091 214.588,166.486 C214.588,167.72 214.445,168.351 214.284,169.241" id="path977_3_" stroke="#000000" stroke-width="1.6662"></path>
                <path d="M179.645,110.026 C183.706,110.859 193.598,110.026 197.556,107.11 C201.513,104.194 201.513,104.194 201.513,104.194" id="path978_3_" stroke="#000000" stroke-width="1.333"></path>
                <path d="M179.658,112.018 C183.537,113.481 193.437,114.216 197.804,111.961 C202.172,109.705 202.172,109.705 202.172,109.705" id="path979_3_" stroke="#000000" stroke-width="1.333"></path>
                <path d="M179.332,117.315 C181.414,119.815 182.872,121.064 183.497,124.397 C184.121,127.73 184.121,127.73 184.121,127.73" id="path980_3_" stroke="#000000" stroke-width="1.333"></path>
                <path d="M176.832,118.565 C179.332,122.106 180.997,123.355 181.83,126.896 C182.664,130.437 182.664,130.437 182.664,130.437" id="path981_3_" stroke="#000000" stroke-width="1.333"></path>
                <path d="M174.75,120.856 C175.791,126.272 179.957,136.477 183.08,139.809 C186.205,143.142 186.205,143.142 186.205,143.142" id="path982_3_" stroke="#000000" stroke-width="1.333"></path>
                <path d="M217.476,52.487 C217.17,55.015 217.017,59.993 217.936,63.133 C218.854,66.273 218.854,66.273 218.854,66.273" id="path986_3_" stroke="#000000" stroke-width="1.333"></path>
                <path d="M224.828,44.523 C223.066,45.136 220.463,46.515 219.621,47.663 C218.779,48.812 218.779,48.812 218.779,48.812" id="path987_3_" stroke="#000000" stroke-width="1.333"></path>
                <path d="M203.573,46.79 C207.367,53.458 206.189,75.245 205.404,77.726 C204.62,80.207 204.62,80.207 204.62,80.207" id="path988_3_" stroke="#000000" stroke-width="1.753"></path>
                <path d="M191.203,33.276 C189.641,33.797 186.412,36.348 186.152,37.754" id="path989_3_" stroke="#000000" stroke-width="1.333"></path>
                <path d="M193.703,35.099 C192.141,35.62 188.912,38.171 188.652,39.577" id="path990_3_" stroke="#000000" stroke-width="1.333"></path>
                <circle id="circle2813" stroke="#FFFFFF" stroke-width="5.3319" cx="111.897" cy="145.353" r="12.441"></circle>
                <polygon id="polygon2815" fill="#000000" fill-rule="nonzero" points="114.785 136.468 115.896 134.911 117.007 133.135 118.34 131.579 118.562 130.024 118.784 127.136 116.34 126.025 113.008 127.136 111.675 128.691 112.786 130.245 113.23 131.579 112.786 133.578 112.119 134.911 111.231 136.022"></polygon>
            </g>
            <g id="g2817" transform="translate(715.000000, 440.000000)">
                <path d="M179.539,190.531 C158.203,200.398 152.986,213.393 143.566,223.759 C134.142,234.123 120.094,256.421 92.769,248.882 C91.913,243.298 88.383,227.898 78.081,220.932 C71.715,217.054 63.947,211.509 62.533,202.086 C51.225,204.913 22.913,207.175 21.546,192.192 C21.076,187.01 25.515,179.071 20.768,173.606 C19.695,173.639 13.687,173.758 12.111,173.024 C10.463,171.078 12.09,163.992 13.285,162.419 L13.271,162.355 C10.451,162.096 3.173,155.447 12.125,150.736 C14.486,147.962 14.072,145.693 14.064,143.135 C12.585,143.156 8.951,143.114 8.418,143.079 C-1.017,143.044 0.194,136.956 2.913,130.477 C4.797,126.237 15.423,105.978 17.306,103.152 C19.191,100.325 19.191,98.912 17.778,96.085 C16.365,93.26 16.836,88.547 17.778,85.25 C18.72,81.953 20.605,76.771 19.191,75.356 C17.778,73.943 18.25,69.232 18.72,68.29 C19.19,67.348 19.191,64.992 19.191,64.05 C19.191,63.108 19.663,60.752 21.077,59.811 C22.489,58.868 23.431,55.57 22.489,54.627 C21.547,53.686 28.613,45.205 30.027,41.908 C29.861,37.255 33.514,31.974 35.681,29.658 C37.094,28.244 36.622,23.533 36.622,23.533 L40.767,23.629 C41.219,23.478 44.63,18.823 47.929,17.881 C51.226,16.938 58.765,13.17 58.765,13.17 L63.948,7.516 L68.658,9.871 C68.658,9.871 72.429,8.459 75.726,7.986 C79.023,7.515 86.089,5.16 88.446,1.391 C90.8,-2.38 90.33,5.876 90.406,6.328 C90.707,6.402 94.571,4.217 101.166,4.689 C107.762,5.16 115.3,7.986 117.656,7.044 C120.01,6.101 122.367,8.929 122.367,8.929 C122.367,8.929 127.077,11.755 130.846,11.755 C134.615,11.755 137.912,11.755 137.912,11.755 L138.383,15.052 C138.383,15.052 145.451,17.484 148.748,18.898 C152.045,20.31 154.873,22.12 159.111,22.59 C163.351,23.062 164.765,24.476 164.765,24.476 L162.88,28.244 C162.88,28.244 167.968,29.282 169.476,34.369 C172.304,38.138 176.072,44.263 178.9,44.733 C181.724,45.205 183.611,46.618 183.611,46.618 L179.841,51.329 C179.841,51.329 180.782,52.743 182.667,54.627 C184.552,56.512 188.321,59.811 188.321,59.811 L185.964,64.05 C185.964,64.05 185.964,64.992 186.437,67.348 C186.908,69.703 186.908,73.944 189.263,74.885 C191.618,75.828 191.618,78.655 191.618,78.655 C191.618,78.655 192.089,79.126 189.263,80.069 C186.437,81.01 184.552,81.01 185.964,82.895 C187.378,84.78 189.735,88.078 189.735,88.078 C189.735,88.078 187.378,89.49 185.022,89.962 C182.667,90.433 180.311,90.433 180.311,90.433 C180.311,90.433 182.196,99.385 184.081,100.798 C185.964,102.212 181.253,103.153 178.427,101.739 C175.601,100.326 177.366,105.979 179.251,106.45 C181.136,106.922 178.567,107.582 176.355,107.604 C174.47,107.133 172.044,107.463 173.126,110.244 C174.54,114.013 176.071,115.874 172.304,117.758 C168.534,119.643 165.118,128.123 167.003,130.949 C168.888,133.775 169.946,138.015 169.946,138.015 L160.995,138.487 C160.995,138.487 160.382,139.9 162.739,142.256 C165.094,144.611 167.45,147.297 167.12,147.956 C167.19,148.976 160.03,148.561 160.102,149.582 C166.194,179.696 180.663,188.144 180.684,189.728 L179.539,190.531 L179.539,190.531 L179.539,190.531 L179.539,190.531 L179.539,190.531 L179.539,190.531 L179.539,190.531 L179.539,190.531 L179.539,190.531 L179.539,190.531 L179.539,190.531 L179.539,190.531 L179.539,190.531 L179.539,190.531 L179.539,190.531 L179.539,190.531 L179.539,190.531 L179.539,190.531 L179.539,190.531 Z" id="path809_2_" stroke="#000000" stroke-width="1.333" fill="#000000" fill-rule="nonzero"></path>
                <g id="g2820" transform="translate(9.000000, 60.000000)" fill-rule="nonzero">
                    <g id="g2822">
                        <path d="M102.684,82.358 C100.226,82.358 97.871,81.462 96.215,79.898 C95.597,79.421 93.981,78.12 94.489,76.626 C94.658,76.128 95.191,75.293 96.856,75.293 C98.308,75.293 100.463,75.886 103.106,77.009 C106.008,76.697 108.991,71.034 110.573,65.764 C112.001,61.019 113.851,58.412 117.644,55.804 C120.618,53.758 122.466,46.047 120.227,41.762 C116.792,37.172 112.928,34.847 108.746,34.847 C100.981,34.847 94.018,42.773 90.833,50.137 L90.636,50.594 L90.187,50.811 C87.781,51.966 74.06,52.715 69.852,52.715 C68.143,52.715 67.016,52.715 66.754,51.534 L66.571,50.694 C64.164,51.504 61.94,52.272 60.758,52.718 C57.499,53.948 51.595,54.948 47.593,54.948 C46.462,54.948 45.488,54.871 44.699,54.72 C41.206,54.048 11.552,53.355 4.572,53.355 C3.32,53.355 2.719,52.808 2.433,52.35 C1.688,51.15 2.395,49.725 3.287,47.923 C3.749,46.989 4.256,45.97 4.53,45.027 L4.41,43.99 C4.392,43.713 4.442,43.315 4.764,43 L4.775,42.631 L5.565,42.595 C5.669,42.572 5.784,42.55 5.908,42.534 L5.913,42.579 L6.008,42.575 C6.143,42.568 6.317,42.56 6.523,42.547 C6.496,42.541 6.467,42.534 6.439,42.528 C5.587,42.528 4.848,42.202 4.303,41.588 C2.764,39.849 3.214,36.187 3.694,32.309 C3.87,30.875 4.873,28.565 9.4,28.125 C8.666,27.498 7.827,26.729 6.869,25.789 C2.987,22.124 4.694,13.687 7.425,9.012 C8.772,6.705 9.089,5.666 9.368,4.75 C9.594,4.014 9.806,3.317 10.418,2.276 L10.841,1.555 L11.676,1.623 C28.238,2.99 43.224,5.622 57.494,9.672 C65.731,11.471 67.297,12.782 67.191,14.429 C67.094,15.9 65.532,16.711 61.856,17.143 C65.86,16.969 69.505,16.611 72.891,16.061 C73.859,15.905 74.797,15.724 75.725,15.545 C78.153,15.079 80.45,14.64 82.975,14.64 C83.934,14.64 84.849,14.702 85.77,14.833 C92.071,15.728 96.959,16.181 100.302,16.181 C101.21,16.181 101.998,16.147 102.644,16.078 C103.038,16.035 103.34,16.017 103.565,16.017 C104.976,16.017 105.266,16.88 105.324,17.251 C105.423,17.88 105.403,18.338 104.19,18.996 C104.669,19.016 105.163,19.028 105.665,19.028 C107.026,19.028 108.269,18.938 109.362,18.762 C109.708,18.706 110.094,18.678 110.537,18.678 C116.849,18.678 134.519,24.921 138.135,27.569 C140.657,29.422 150.604,31.131 156.548,32.15 C158.156,32.426 159.558,32.668 160.597,32.872 C165.174,33.761 171.611,38.333 172.268,41.163 C172.465,42.015 172.199,42.818 171.553,43.308 C171.127,43.63 170.488,44.016 169.745,44.465 C169.141,44.83 168.128,45.442 167.383,45.976 C168.283,46.277 168.416,47.011 168.433,47.26 C168.504,48.235 168.578,49.243 157.689,51.981 C155.645,52.495 152.335,52.57 150.542,52.57 C144.978,52.57 137.76,51.889 135.063,50.395 C133.998,49.804 132.439,49.493 130.556,49.493 C129.23,49.493 128.021,49.646 127.279,49.766 C126.579,52.039 124.515,58.034 121.744,59.826 C118.238,62.244 116.02,67.465 114.239,71.66 C113.356,73.742 112.592,75.544 111.755,76.866 C109.939,80.309 106.552,82.358 102.684,82.358 L102.684,82.358 Z" id="path2824" fill="#FFFFFF"></path>
                        <path d="M11.567,2.955 C26.989,4.228 42.237,6.731 57.13,10.957 C69.047,13.565 67.302,15.346 60.586,15.936 C60.099,16.001 58.604,16.024 56.488,16.024 C54.249,16.024 51.315,16 48.147,15.974 C44.976,15.949 41.573,15.924 38.396,15.924 C35.087,15.924 32.024,15.95 29.73,16.033 C21.818,16.318 28.462,17.592 31.396,17.699 C39.328,17.993 47.566,18.604 55.819,18.604 C61.608,18.604 67.405,18.303 73.103,17.379 C76.533,16.823 79.615,15.975 82.973,15.975 C83.822,15.975 84.688,16.029 85.581,16.156 C89.269,16.678 95.74,17.516 100.3,17.516 C101.218,17.516 102.06,17.482 102.784,17.405 C103.117,17.37 103.374,17.353 103.564,17.353 C105.842,17.353 98.571,19.71 98.571,19.71 C98.571,19.71 101.897,20.365 105.662,20.365 C106.953,20.365 108.296,20.288 109.573,20.081 C109.851,20.036 110.172,20.015 110.533,20.015 C116.67,20.015 134.069,26.249 137.344,28.648 C140.809,31.189 155.151,33.172 160.34,34.182 C165.528,35.192 172.406,40.988 170.746,42.247 C169.082,43.509 162.248,46.746 166.691,47.19 C168.882,47.41 161.775,49.581 157.361,50.69 C155.883,51.06 153.367,51.239 150.538,51.239 C144.913,51.239 138.057,50.533 135.707,49.231 C134.209,48.401 132.278,48.162 130.551,48.162 C128.203,48.162 126.231,48.603 126.231,48.603 C126.231,48.603 123.936,56.821 121.018,58.709 C115.385,62.59 113.1,72.29 110.594,76.202 C108.887,79.481 105.723,81.024 102.682,81.024 C100.583,81.024 98.543,80.29 97.081,78.883 C95.302,77.513 95.321,76.622 96.855,76.622 C98.023,76.622 100.067,77.138 102.861,78.351 C107.239,78.346 110.518,70.577 111.848,66.146 C113.179,61.715 114.833,59.351 118.398,56.9 C121.96,54.449 123.955,45.859 121.357,41.046 C117.371,35.681 112.995,33.511 108.744,33.511 C100.791,33.511 93.281,41.111 89.606,49.606 C87.607,50.566 74.66,51.379 69.85,51.379 C68.535,51.379 67.828,51.318 68.12,51.183 C71.157,49.262 72.671,48.245 75.72,46.294 C75.897,46.232 75.973,46.203 75.962,46.203 C75.836,46.203 63.711,50.174 60.283,51.469 C57.304,52.594 51.625,53.615 47.592,53.615 C46.587,53.615 45.683,53.551 44.949,53.41 C41.272,52.705 11.45,52.021 4.569,52.021 C1.418,52.021 5.956,47.474 6.068,43.907 C7.772,43.83 15.547,43.219 15.547,43.219 C15.547,43.219 8.741,41.692 6.568,41.192 C6.524,41.195 6.481,41.196 6.439,41.196 C3.947,41.196 4.501,36.64 5.013,32.472 C5.33,29.889 8.54,29.385 11,29.385 C12.576,29.385 13.845,29.592 13.845,29.592 C13.845,29.592 12.054,29.022 7.8,24.838 C4.515,21.736 6.118,13.884 8.571,9.683 C11.03,5.483 10.298,5.114 11.567,2.955 M6.071,43.859 C6.071,43.876 6.07,43.892 6.07,43.909 C5.954,43.915 5.866,43.918 5.81,43.918 C5.673,43.918 5.736,43.9 6.071,43.859 M10.118,0.16 L9.269,1.603 C8.578,2.78 8.321,3.62 8.094,4.361 C7.835,5.208 7.542,6.168 6.273,8.34 C3.435,13.2 1.377,22.406 5.954,26.76 C6.167,26.969 6.375,27.17 6.577,27.364 C3.247,28.517 2.52,30.932 2.371,32.148 C1.855,36.332 1.369,40.284 3.306,42.473 C3.344,42.515 3.382,42.557 3.421,42.597 C3.054,43.263 3.073,43.94 3.081,44.074 C3.096,44.303 3.142,44.537 3.22,44.763 C2.965,45.575 2.495,46.522 2.094,47.331 C1.147,49.244 0.165,51.223 1.302,53.054 C1.681,53.664 2.609,54.689 4.572,54.689 C12.364,54.689 41.256,55.418 44.45,56.03 C45.32,56.197 46.379,56.282 47.595,56.282 C51.799,56.282 57.787,55.264 61.228,53.966 C62.154,53.616 63.783,53.049 65.647,52.415 C66.369,54.048 68.284,54.048 69.854,54.048 C72.327,54.048 87.694,53.486 90.764,52.012 L91.661,51.58 L92.057,50.667 C95.075,43.689 101.585,36.18 108.747,36.18 C112.463,36.18 115.944,38.296 119.097,42.474 C120.984,46.26 119.093,53.191 116.891,54.706 C112.862,57.477 110.804,60.37 109.298,65.381 C107.532,71.265 104.904,75.077 103.247,75.62 C101.272,74.806 98.763,73.96 96.859,73.959 C94.268,73.959 93.456,75.524 93.227,76.197 C92.685,77.788 93.397,79.373 95.343,80.909 C97.268,82.705 99.868,83.692 102.684,83.692 C106.974,83.692 110.879,81.338 112.905,77.541 C113.79,76.131 114.568,74.299 115.466,72.185 C117.176,68.159 119.304,63.15 122.509,60.924 C125.337,59.059 127.335,53.958 128.303,50.97 C128.937,50.894 129.722,50.829 130.554,50.829 C132.214,50.829 133.55,51.083 134.417,51.563 C137.753,53.412 146.122,53.905 150.541,53.905 C152.806,53.905 155.94,53.797 158.013,53.277 C160.165,52.736 162.66,52.022 164.526,51.413 C167.433,50.464 169.945,49.643 169.763,47.165 C169.74,46.847 169.657,46.507 169.501,46.181 C169.853,45.962 170.185,45.762 170.434,45.612 C171.209,45.143 171.878,44.738 172.36,44.373 C173.437,43.557 173.888,42.245 173.568,40.866 C172.727,37.252 165.577,32.486 160.853,31.566 C159.796,31.361 158.406,31.122 156.794,30.845 C151.732,29.975 141.196,28.165 138.923,26.499 C135.104,23.701 117.195,17.351 110.536,17.35 C110.533,17.35 110.531,17.35 110.528,17.35 C110.017,17.35 109.565,17.383 109.148,17.452 C108.402,17.572 107.577,17.649 106.683,17.682 C106.691,17.482 106.676,17.27 106.641,17.046 C106.603,16.805 106.193,14.688 103.567,14.688 C103.274,14.688 102.926,14.709 102.504,14.755 C101.905,14.818 101.164,14.851 100.303,14.851 C97.032,14.851 92.206,14.403 85.958,13.517 C84.975,13.377 83.999,13.31 82.976,13.31 C80.322,13.31 77.854,13.784 75.468,14.242 C74.559,14.416 73.619,14.596 72.679,14.749 C71.29,14.975 69.856,15.167 68.369,15.328 C68.45,15.079 68.503,14.809 68.521,14.518 C68.723,11.365 65.062,9.969 57.78,8.371 C43.452,4.311 28.407,1.671 11.788,0.299 L10.118,0.16 L10.118,0.16 Z" id="path2826" fill="#000000"></path>
                    </g>
                </g>
                <path d="M115.13,110.887 C115.283,110.905 115.916,111.016 116.321,111.441 C116.772,112.023 117.153,112.544 117.38,113.104 C117.548,113.853 117.767,114.471 117.646,115.184 C117.392,115.883 117.052,116.379 116.586,116.847 C116.062,117.494 115.681,117.824 115.13,118.234 C114.515,118.524 113.927,119.09 113.407,119.342 C113.159,119.68 112.52,119.927 112.216,120.312 C111.864,120.786 111.592,121.021 111.554,121.699 C111.325,122.372 111.249,123.201 111.158,123.917 C111.027,124.703 110.843,125.441 110.76,126.136 C110.43,126.728 110.069,127.032 109.304,127.243 C108.672,127.356 108.017,127.382 107.318,127.382 C106.922,127.004 106.249,126.577 105.862,126.136 C105.862,125.767 105.862,125.396 105.862,125.027" id="path817_2_" stroke="#FFFFFF" stroke-width="3.3722" stroke-linecap="round"></path>
                <path d="M104.968,107.94 C108.356,102.49 128.688,92.33 123.531,111.769 C122.353,113.831 124.562,114.715 125.152,113.243 C130.601,90.267 108.061,99.986 104.38,106.025 C102.906,108.529 104.093,107.941 104.093,107.795 L104.093,107.795 L104.968,107.94 Z" id="path818_2_" stroke="#FFFFFF" stroke-width="1.333" fill="#FFFFFF" fill-rule="nonzero"></path>
                <path d="M30.546,84.488 C38.499,84.342 46.892,84.783 53.372,88.906 C59.852,93.03 66.667,95.195 72.518,94.208 C79.344,93.057 82.975,94.355 82.975,94.355 L82.975,94.355" id="path823_2_" stroke="#000000" stroke-width="2.6659" stroke-linecap="round"></path>
                <path d="M129.053,88.437 C143.498,92.694 146.106,94.076 152.328,97.398 C158.549,100.719 160.787,101.178 166.023,103.942 C169.908,105.859 172.861,106.192 172.861,106.192 C176.256,108.468 157.691,99.516 146.822,102.93 C142.773,103.253 142.15,103.303 138.084,99.492 C134.02,95.679 129.381,92.549 122.949,90.516 C116.518,88.483 105.29,85.243 105.29,85.243" id="path824_2_" stroke="#000000" stroke-width="2.7737" stroke-linecap="round"></path>
                <path d="M140.299,109.595 C141.104,109.595 144.457,109.467 145.744,109.897 C146.869,110.049 148.67,110.196 149.678,110.502 C151.391,110.705 152.967,111.062 154.823,111.107 C156.819,111.125 157.528,111.734 159.362,112.014 C159.936,112.731 161.018,113.591 161.784,114.133" id="path826_2_" stroke="#000000" stroke-width="2.3327" stroke-linecap="round"></path>
                <g id="g895_2_" transform="translate(171.500000, 12.250000)" stroke="#000000" stroke-width="2.6659">
                    <path d="M41.537,8.68 C41.693,10.397 42.234,17.903 41.486,17.985 C37.25,18.59 34.326,19.3 30.695,22.932 C27.064,26.564 18.754,32.746 14.043,24.26 C11.621,19.417 17.518,17.153 20.545,17.153 C23.518,17.049 28.191,14.753 33.031,13.542 C37.875,12.331 39.838,9.22 40.443,9.825 L41.537,8.68 L41.537,8.68 Z" id="path865_2_"></path>
                    <g id="g885_2_">
                        <path d="M60.619,27.217 C61.281,26.852 64.422,22.656 62.797,17.544 C60.442,14.011 73.459,21.346 70.711,25.272 C67.234,27.979 60.348,27.945 60.619,27.217 L60.619,27.217 Z" id="path863_2_"></path>
                        <g id="g877_2_">
                            <path d="M29.617,10.833 C29.56,10.033 29.465,2.873 29.586,1.292 C32.02,0.928 39.221,-0.118 40.791,2.236 C46.375,10.674 30.115,14.875 29.723,13.697 L29.617,10.833 L29.617,10.833 Z" id="path864_2_"></path>
                            <g id="g871_2_" transform="translate(0.000000, 18.000000)">
                                <path d="M16.486,9.746 L26.689,45.068 C26.689,45.068 32.449,70.141 14.916,76.859 C9.422,77.252 7.459,76.466 7.459,76.466 L9.029,85.099 C16.812,93.126 21.83,91.23 28.504,88.483 C35.174,85.736 35.445,85.519 38.979,83.558 C42.51,81.595 47.379,70.534 47.922,67.39 C49.436,59.257 54.549,43.284 69.901,9.355 C67.131,9.111 49.073,10.935 47.856,10.935 C47.247,11.909 44.409,16.548 40.034,18.38 C35.231,20.343 28.311,14.686 35.325,10.139 C38.753,7.954 50.124,10.529 49.913,4.589 C49.624,-0.571 41.997,-0.065 38.856,0.328 C35.717,0.72 31.401,4.253 29.436,6.214 C25.043,10.609 18.84,11.316 16.486,9.746 L16.486,9.746 L16.486,9.746 L16.486,9.746 L16.486,9.746 Z" id="path862_2_"></path>
                                <g id="g867_2_" transform="translate(0.000000, 86.000000)">
                                    <path d="M0.787,7.734 C3.141,11.659 5.496,16.368 6.676,22.647 C7.852,28.927 11.252,37.711 20.02,39.917 C27.082,41.878 33.362,45.019 34.932,50.513 C36.502,56.007 37.623,63.017 37.623,62.895 L48.547,47.44 C48.424,45.373 48.342,40.337 48.342,34.45 C48.221,25.888 41.875,23.799 35.596,21.443 C29.317,19.089 22.278,16.165 20.317,12.632 C18.354,9.1 13.346,3.026 10.6,0.67 C7.852,-1.684 0.787,7.734 0.787,7.734 L0.787,7.734 L0.787,7.734 L0.787,7.734 Z" id="path859_2_"></path>
                                    <path d="M12.332,80.591 C18.398,91.499 19.787,105.505 22.281,115.942 C26.611,107.72 33.349,101.859 40.453,97.244 C40.869,89.057 42.943,77.756 45.299,74.224 C56.672,57.648 48.668,48.159 48.668,48.159 C37.301,61.507 36.91,71.056 12.352,80.57 L12.332,80.591 L12.332,80.591 L12.332,80.591 Z" id="path860_2_"></path>
                                    <path d="M1.521,114.306 C1.209,117.015 4.832,126.427 10.964,126.847 C16.987,127.26 20.462,122.626 21.564,117.21 L18.546,99.018 L1.521,114.306 L1.521,114.306 Z" id="path866_2_"></path>
                                </g>
                            </g>
                        </g>
                    </g>
                </g>
                <path d="M173.479,108.73 C172.27,105.402 174.084,105.402 177.413,106.914 C182.862,110.243 178.927,118.716 172.876,120.532 C169.546,122.046 167.73,118.11 172.573,116.297 C177.111,115.086 173.479,108.428 173.479,108.73 L173.784,108.73 L173.479,108.73 L173.479,108.73 Z" id="path912_2_" stroke="#000000" stroke-width="1.333" fill="#FFFFFF" fill-rule="nonzero"></path>
                <path d="M212.318,161.681 C212.318,161.818 212.318,161.954 212.318,162.091 C212.318,160.984 212.298,161.546 212.621,163.733 C212.621,165.953 212.787,167.819 212.924,169.89 C212.924,171.605 212.721,172.833 212.621,174.404" id="path955_2_" stroke="#000000" stroke-width="1.6662"></path>
                <path d="M209.293,163.729 C209.293,163.979 209.293,164.229 209.293,164.479 C209.293,163.092 209.254,163.485 209.596,165.602 C209.717,167.715 210.141,168.817 210.201,170.85 C210.201,172.911 209.955,174.511 209.898,176.47" id="path956_2_" stroke="#000000" stroke-width="1.6662"></path>
                <path d="M207.779,208.851 C207.881,208.851 207.982,208.851 208.082,208.851 C208.002,209.136 208.082,210.757 208.082,211.84 C208.082,213.472 208.051,215.065 207.779,216.112" id="path957_2_" stroke="#000000" stroke-width="1.6662"></path>
                <path d="M204.451,210.362 C204.451,210.564 204.451,210.766 204.451,210.967 L204.451,210.362 C204.451,210.564 204.451,210.766 204.451,210.967 L204.451,210.362 C204.515,212.598 204.754,213.836 204.754,216.112 C204.754,216.809 204.885,217.337 204.451,217.626" id="path958_2_" stroke="#000000" stroke-width="1.6662"></path>
                <path d="M201.424,212.179 C201.549,214.617 201.955,216.212 202.029,218.714 C202.029,219.974 201.777,220.112 201.728,221.257" id="path960_2_" stroke="#000000" stroke-width="1.6662"></path>
                <path d="M197.793,214.022 C197.793,214.149 197.793,214.277 197.793,214.405 C197.793,213.372 197.773,213.897 198.096,215.934 C198.151,217.812 198.399,218.825 198.399,220.905 C198.342,222.902 197.901,223.735 197.794,225.493" id="path961_2_" stroke="#000000" stroke-width="1.6662"></path>
                <path d="M195.07,215.206 C195.07,215.745 195.234,217.844 195.373,219.139 C195.373,220.552 195.373,221.964 195.373,223.374 C195.205,224.786 194.896,226.301 194.465,227.31 C194.465,227.612 194.465,227.914 194.465,228.217" id="path963_2_" stroke="#000000" stroke-width="1.6662"></path>
                <path d="M215.346,162.347 C215.422,162.915 215.871,165.085 215.346,166.481 C215.346,167.714 215.203,168.345 215.043,169.236" id="path977_2_" stroke="#000000" stroke-width="1.6662"></path>
                <path d="M180.402,110.021 C184.463,110.854 194.355,110.021 198.314,107.105 C202.271,104.189 202.271,104.189 202.271,104.189" id="path978_2_" stroke="#000000" stroke-width="1.333"></path>
                <path d="M180.416,112.012 C184.295,113.475 194.195,114.211 198.562,111.955 C202.931,109.699 202.931,109.699 202.931,109.699" id="path979_2_" stroke="#000000" stroke-width="1.333"></path>
                <path d="M180.09,117.311 C182.172,119.81 183.631,121.059 184.256,124.392 C184.879,127.725 184.879,127.725 184.879,127.725" id="path980_2_" stroke="#000000" stroke-width="1.333"></path>
                <path d="M177.59,118.561 C180.09,122.101 181.756,123.35 182.588,126.891 C183.422,130.432 183.422,130.432 183.422,130.432" id="path981_2_" stroke="#000000" stroke-width="1.333"></path>
                <path d="M175.508,120.851 C176.549,126.266 180.715,136.472 183.838,139.804 C186.963,143.136 186.963,143.136 186.963,143.136" id="path982_2_" stroke="#000000" stroke-width="1.333"></path>
                <path d="M218.234,52.481 C217.927,55.009 217.775,59.987 218.693,63.127 C219.611,66.267 219.611,66.267 219.611,66.267" id="path986_2_" stroke="#000000" stroke-width="1.333"></path>
                <path d="M225.586,44.518 C223.824,45.131 221.221,46.51 220.379,47.658 C219.537,48.807 219.537,48.807 219.537,48.807" id="path987_2_" stroke="#000000" stroke-width="1.333"></path>
                <path d="M204.332,46.785 C208.125,53.453 206.947,75.239 206.162,77.721 C205.379,80.201 205.379,80.201 205.379,80.201" id="path988_2_" stroke="#000000" stroke-width="1.753"></path>
                <path d="M191.961,33.271 C190.399,33.792 187.17,36.343 186.91,37.749" id="path989_2_" stroke="#000000" stroke-width="1.333"></path>
                <path d="M194.461,35.094 C192.899,35.614 189.67,38.165 189.41,39.572" id="path990_2_" stroke="#000000" stroke-width="1.333"></path>
                <circle id="circle2864" stroke="#FFFFFF" stroke-width="5.3319" cx="112.655" cy="145.348" r="12.441"></circle>
                <polygon id="polygon2866" fill="#000000" fill-rule="nonzero" points="115.544 136.462 116.654 134.905 117.765 133.13 119.099 131.573 119.32 130.019 119.542 127.131 117.099 126.02 113.767 127.131 112.433 128.686 113.544 130.239 113.989 131.573 113.544 133.572 112.878 134.905 111.989 136.017"></polygon>
            </g>
        </g>
    </g>
</svg>