<?xml version="1.0" encoding="utf-8"?>
<!-- Generator: Adobe Illustrator 24.0.0, SVG Export Plug-In . SVG Version: 6.00 Build 0)  -->
<svg version="1.1" id="Layer_1" xmlns="http://www.w3.org/2000/svg" xmlns:xlink="http://www.w3.org/1999/xlink" x="0px" y="0px"
	 viewBox="0 0 70 70" style="enable-background:new 0 0 70 70;" xml:space="preserve">
<style type="text/css">
	.st0{fill-rule:evenodd;clip-rule:evenodd;}
</style>
<path class="st0" d="M52.19,3.68c0,0-29.23,0-33.91,0c-4.68,0-6.06,3.47-6.06,5.65v53.08c0,2.46,1.34,3.37,2.1,3.67
	c0.75,0.3,2.84,0.55,4.08-0.86c0,0,16.23-18.36,16.49-18.65c0.26-0.28,0.54-0.29,0.7-0.29c0.15,0,6.93,0,10.29,0
	c4.35,0,5.05-3.11,5.51-4.91c0.38-1.51,4.63-22.92,6.04-29.72C58.51,6.48,57.17,3.68,52.19,3.68L52.19,3.68L52.19,3.68z
	 M51.38,41.38c0.38-1.51,4.63-22.92,6.04-29.72L51.38,41.38L51.38,41.38z M50.19,12.72l-1.42,7.31c-0.17,0.79-0.96,1.54-1.9,1.54
	c-0.94,0-13.21-0.02-13.21-0.02c-1.49,0-2.77,1.1-2.77,2.57v1.59c0,1.46,1.22,2.66,2.7,2.66H44.8c1.05,0,1.93,0.98,1.71,2.08
	c-0.23,1.11-1.4,6.94-1.53,7.54c-0.13,0.6-0.78,1.42-1.84,1.42H34c-1.9,0.06-2.31,0.07-3.43,1.44
	c-1.12,1.37-11.14,13.22-11.14,13.22c-0.1,0.11-0.2,0.08-0.2-0.04V12.62c0-0.93,0.82-2.03,2.06-2.03h27.22
	C49.51,10.59,50.44,11.51,50.19,12.72L50.19,12.72L50.19,12.72z M50.19,12.72"/>
</svg>
