<?xml version="1.0" encoding="utf-8"?>
<!-- Generator: Adobe Illustrator 24.0.0, SVG Export Plug-In . SVG Version: 6.00 Build 0)  -->
<svg version="1.1" id="Layer_1" xmlns="http://www.w3.org/2000/svg" xmlns:xlink="http://www.w3.org/1999/xlink" x="0px" y="0px"
	 viewBox="0 0 300 300" style="enable-background:new 0 0 300 300;" xml:space="preserve">
<style type="text/css">
	.st0{stroke:#000000;stroke-width:1.333;}
	.st1{fill:#FFFFFF;}
	.st2{fill:none;stroke:#FFFFFF;stroke-width:3.3722;stroke-linecap:round;}
	.st3{fill:#FFFFFF;stroke:#FFFFFF;stroke-width:1.333;}
	.st4{fill:none;stroke:#000000;stroke-width:2.6659;stroke-linecap:round;}
	.st5{fill:none;stroke:#000000;stroke-width:2.7737;stroke-linecap:round;}
	.st6{fill:none;stroke:#000000;stroke-width:2.3327;stroke-linecap:round;}
	.st7{fill:none;stroke:#000000;stroke-width:2.6659;}
	.st8{fill:#FFFFFF;stroke:#000000;stroke-width:1.333;}
	.st9{fill:none;stroke:#000000;stroke-width:1.6662;}
	.st10{fill:none;stroke:#000000;stroke-width:1.333;}
	.st11{fill:none;stroke:#000000;stroke-width:1.753;}
</style>
<g id="g2664" transform="translate(124.000000, 29.000000)">
	<path id="path809" class="st0" d="M91.76,188.12c-21.34,9.87-26.55,22.86-35.97,33.23c-9.42,10.36-23.47,32.66-50.8,25.12
		c-0.86-5.58-4.38-20.99-14.69-27.95c-6.37-3.88-14.13-9.42-15.55-18.85c-11.31,2.83-39.62,5.09-40.99-9.89
		c-0.47-5.18,3.97-13.12-0.78-18.59c-1.07,0.03-7.08,0.15-8.66-0.58c-1.65-1.95-0.02-9.03,1.17-10.61l-0.01-0.07
		c-2.82-0.26-10.1-6.91-1.15-11.62c2.36-2.77,1.95-5.04,1.94-7.6c-1.48,0.02-5.11-0.02-5.65-0.06c-9.44-0.04-8.22-6.12-5.51-12.6
		c1.88-4.24,12.51-24.5,14.39-27.32c1.89-2.83,1.89-4.24,0.47-7.07c-1.41-2.83-0.94-7.54,0-10.83c0.94-3.3,2.83-8.48,1.41-9.89
		c-1.41-1.41-0.94-6.12-0.47-7.07c0.47-0.94,0.47-3.3,0.47-4.24s0.47-3.3,1.89-4.24c1.41-0.94,2.35-4.24,1.41-5.18
		c-0.94-0.94,6.12-9.42,7.54-12.72c-0.17-4.65,3.49-9.93,5.65-12.25c1.41-1.41,0.94-6.12,0.94-6.12l4.14,0.09
		c0.45-0.15,3.86-4.81,7.16-5.75c3.3-0.94,10.83-4.71,10.83-4.71l5.18-5.65l4.71,2.35c0,0,3.77-1.41,7.07-1.88
		c3.3-0.47,10.36-2.83,12.72-6.59c2.36-3.77,1.88,4.49,1.96,4.94c0.3,0.07,4.17-2.11,10.76-1.64c6.6,0.47,14.13,3.3,16.49,2.36
		c2.36-0.94,4.71,1.88,4.71,1.88s4.71,2.83,8.48,2.83c3.77,0,7.07,0,7.07,0l0.47,3.3c0,0,7.07,2.43,10.36,3.84
		c3.3,1.41,6.12,3.22,10.36,3.69c4.24,0.47,5.65,1.89,5.65,1.89l-1.88,3.77c0,0,5.09,1.04,6.6,6.13c2.83,3.77,6.6,9.89,9.42,10.36
		c2.83,0.47,4.71,1.88,4.71,1.88l-3.77,4.71c0,0,0.94,1.41,2.83,3.3c1.88,1.88,5.65,5.18,5.65,5.18l-2.36,4.24c0,0,0,0.94,0.47,3.3
		c0.47,2.36,0.47,6.6,2.83,7.54c2.35,0.94,2.35,3.77,2.35,3.77s0.47,0.47-2.35,1.41c-2.83,0.94-4.71,0.94-3.3,2.83
		c1.41,1.88,3.77,5.18,3.77,5.18s-2.36,1.41-4.71,1.88c-2.36,0.47-4.71,0.47-4.71,0.47s1.88,8.95,3.77,10.36
		c1.88,1.41-2.83,2.36-5.65,0.94c-2.83-1.41-1.06,4.24,0.82,4.71c1.88,0.47-0.68,1.13-2.9,1.15c-1.88-0.47-4.31-0.14-3.23,2.64
		c1.41,3.77,2.94,5.63-0.82,7.51c-3.77,1.88-7.19,10.36-5.3,13.19c1.88,2.83,2.94,7.07,2.94,7.07l-8.95,0.47
		c0,0-0.61,1.41,1.74,3.77c2.35,2.36,4.71,5.04,4.38,5.7c0.07,1.02-7.09,0.6-7.02,1.63c6.09,30.11,20.56,38.56,20.58,40.15
		L91.76,188.12L91.76,188.12L91.76,188.12L91.76,188.12L91.76,188.12L91.76,188.12L91.76,188.12L91.76,188.12L91.76,188.12
		L91.76,188.12L91.76,188.12L91.76,188.12L91.76,188.12L91.76,188.12L91.76,188.12L91.76,188.12L91.76,188.12L91.76,188.12
		L91.76,188.12z"/>
	<g id="g2667" transform="translate(9.000000, 60.000000)">
		<g id="g2669">
			<path id="path2671" class="st1" d="M14.91,79.95c-2.46,0-4.82-0.9-6.47-2.46c-0.62-0.48-2.23-1.78-1.72-3.27
				c0.17-0.5,0.7-1.33,2.37-1.33c1.45,0,3.61,0.59,6.25,1.71c2.9-0.31,5.88-5.97,7.46-11.24c1.43-4.75,3.28-7.35,7.07-9.96
				c2.98-2.05,4.83-9.76,2.58-14.04c-3.43-4.59-7.3-6.91-11.48-6.91c-7.76,0-14.73,7.93-17.91,15.29l-0.2,0.46L2.41,48.4
				C0,49.56-13.72,50.31-17.93,50.31c-1.71,0-2.83,0-3.09-1.18l-0.19-0.84c-2.41,0.81-4.64,1.58-5.81,2.03
				c-3.26,1.23-9.16,2.23-13.16,2.23c-1.13,0-2.11-0.08-2.9-0.23c-3.5-0.67-33.15-1.36-40.13-1.36c-1.25,0-1.85-0.54-2.14-1
				c-0.75-1.2-0.04-2.63,0.85-4.43c0.46-0.93,0.97-1.95,1.24-2.9l-0.12-1.03c-0.02-0.28,0.03-0.68,0.35-0.99l0.01-0.37l0.79-0.04
				c0.1-0.02,0.22-0.05,0.34-0.06l0,0.04l0.09,0c0.13-0.01,0.3-0.02,0.51-0.03c-0.03-0.01-0.06-0.01-0.08-0.02
				c-0.85,0-1.58-0.33-2.13-0.94c-1.54-1.74-1.09-5.4-0.61-9.28c0.18-1.43,1.18-3.74,5.71-4.18c-0.73-0.63-1.57-1.4-2.53-2.34
				c-3.88-3.66-2.18-12.1,0.55-16.78c1.35-2.31,1.66-3.34,1.94-4.26c0.22-0.74,0.44-1.43,1.05-2.47l0.42-0.72l0.84,0.07
				c16.56,1.37,31.55,4,45.82,8.05c8.24,1.8,9.8,3.11,9.7,4.76c-0.09,1.47-1.66,2.28-5.33,2.71c4-0.17,7.64-0.53,11.03-1.08
				c0.97-0.16,1.9-0.34,2.83-0.51c2.43-0.47,4.73-0.91,7.25-0.91c0.96,0,1.88,0.06,2.8,0.19c6.31,0.89,11.2,1.35,14.53,1.35
				c0.91,0,1.7-0.03,2.35-0.1c0.39-0.04,0.7-0.06,0.92-0.06c1.41,0,1.7,0.86,1.76,1.23c0.1,0.63,0.08,1.09-1.14,1.74
				c0.48,0.02,0.98,0.03,1.48,0.03c1.36,0,2.6-0.09,3.7-0.27c0.35-0.06,0.73-0.08,1.17-0.08c6.32,0,23.99,6.24,27.6,8.89
				c2.52,1.85,12.48,3.56,18.43,4.58c1.6,0.28,3,0.51,4.04,0.72c4.58,0.89,11.01,5.46,11.67,8.29c0.2,0.85-0.07,1.65-0.71,2.14
				c-0.43,0.32-1.07,0.71-1.81,1.16c-0.6,0.37-1.62,0.98-2.36,1.51c0.9,0.3,1.03,1.03,1.05,1.28c0.07,0.98,0.15,1.99-10.74,4.72
				c-2.05,0.51-5.36,0.59-7.15,0.59c-5.56,0-12.78-0.68-15.48-2.17c-1.07-0.59-2.63-0.9-4.51-0.9c-1.32,0-2.53,0.15-3.27,0.27
				c-0.7,2.28-2.76,8.27-5.54,10.07c-3.5,2.42-5.72,7.64-7.5,11.83c-0.88,2.08-1.64,3.87-2.48,5.19
				C22.17,77.89,18.78,79.95,14.91,79.95L14.91,79.95z"/>
			<path id="path2673" d="M-76.21,0.55c15.42,1.27,30.67,3.78,45.56,8c11.92,2.61,10.17,4.39,3.46,4.98
				c-0.49,0.07-1.98,0.09-4.1,0.09c-2.24,0-5.17-0.02-8.34-0.05c-3.17-0.02-6.58-0.05-9.75-0.05c-3.31,0-6.37,0.03-8.66,0.11
				c-7.91,0.28-1.27,1.56,1.67,1.67c7.93,0.29,16.17,0.91,24.42,0.91c5.79,0,11.59-0.3,17.29-1.23c3.43-0.56,6.51-1.41,9.87-1.4
				c0.85,0,1.72,0.05,2.61,0.18c3.69,0.52,10.16,1.36,14.72,1.36c0.92,0,1.76-0.03,2.49-0.11c0.33-0.04,0.59-0.05,0.78-0.05
				c2.28,0-4.99,2.36-4.99,2.36s3.33,0.66,7.09,0.66c1.29,0,2.63-0.08,3.91-0.28c0.28-0.05,0.6-0.07,0.96-0.07
				c6.14,0,23.54,6.23,26.81,8.63c3.46,2.54,17.81,4.52,23,5.53c5.19,1.01,12.07,6.81,10.41,8.07c-1.66,1.26-8.5,4.5-4.06,4.94
				c2.19,0.22-4.92,2.39-9.33,3.5c-1.48,0.37-3.99,0.55-6.82,0.55c-5.62,0-12.48-0.71-14.83-2.01c-1.5-0.83-3.43-1.07-5.16-1.07
				c-2.35,0-4.32,0.44-4.32,0.44s-2.3,8.22-5.21,10.11c-5.63,3.88-7.92,13.58-10.42,17.49c-1.71,3.28-4.87,4.82-7.91,4.82
				c-2.1,0-4.14-0.73-5.6-2.14c-1.78-1.37-1.76-2.26-0.22-2.26c1.17,0,3.21,0.52,6,1.73c4.38-0.01,7.66-7.78,8.99-12.21
				c1.33-4.43,2.99-6.8,6.55-9.25c3.56-2.45,5.56-11.04,2.96-15.85c-3.99-5.37-8.36-7.54-12.61-7.54c-7.95,0-15.46,7.6-19.14,16.09
				c-2,0.96-14.95,1.77-19.76,1.77c-1.32,0-2.02-0.06-1.73-0.2c3.04-1.92,4.55-2.94,7.6-4.89c0.18-0.06,0.25-0.09,0.24-0.09
				c-0.12,0-12.25,3.97-15.68,5.27c-2.98,1.12-8.66,2.15-12.69,2.15c-1.01,0-1.91-0.06-2.64-0.21c-3.68-0.7-33.5-1.39-40.38-1.39
				c-3.15,0,1.39-4.55,1.5-8.11c1.7-0.08,9.48-0.69,9.48-0.69s-6.81-1.53-8.98-2.03c-0.04,0-0.09,0-0.13,0
				c-2.49,0-1.94-4.56-1.43-8.72c0.32-2.58,3.53-3.09,5.99-3.09c1.58,0,2.84,0.21,2.84,0.21s-1.79-0.57-6.04-4.75
				c-3.28-3.1-1.68-10.95,0.77-15.16C-76.75,3.08-77.48,2.71-76.21,0.55 M-81.71,41.45c0,0.02,0,0.03,0,0.05
				c-0.12,0-0.2,0.01-0.26,0.01C-82.11,41.51-82.04,41.49-81.71,41.45 M-77.66-2.25l-0.85,1.44c-0.69,1.18-0.95,2.02-1.18,2.76
				c-0.26,0.85-0.55,1.81-1.82,3.98c-2.84,4.86-4.9,14.06-0.32,18.42c0.21,0.21,0.42,0.41,0.63,0.61c-3.33,1.15-4.06,3.57-4.21,4.78
				c-0.51,4.19-1,8.14,0.94,10.33c0.04,0.04,0.08,0.08,0.11,0.12c-0.37,0.67-0.35,1.34-0.34,1.48c0.01,0.23,0.06,0.46,0.14,0.69
				c-0.25,0.81-0.72,1.76-1.12,2.57c-0.95,1.91-1.93,3.89-0.79,5.72c0.38,0.61,1.31,1.63,3.27,1.63c7.79,0,36.68,0.73,39.88,1.34
				c0.87,0.17,1.93,0.25,3.15,0.25c4.2,0,10.19-1.02,13.63-2.32c0.95-0.36,2.57-0.92,4.42-1.55c0.72,1.63,2.64,1.63,4.21,1.63
				c2.47,0,17.84-0.56,20.91-2.04l0.9-0.43l0.39-0.91c3.02-6.98,9.53-14.49,16.69-14.49c3.72,0,7.2,2.12,10.35,6.29
				c1.96,3.9,0.01,10.71-2.21,12.23c-4.03,2.77-6.08,5.66-7.59,10.68c-1.77,5.88-4.39,9.69-6.05,10.24
				c-1.97-0.81-4.48-1.66-6.39-1.66c-2.59,0-3.4,1.57-3.63,2.24c-0.54,1.59,0.17,3.18,2.12,4.71c1.92,1.79,4.52,2.78,7.34,2.78
				c4.29,0,8.2-2.35,10.22-6.15c0.88-1.41,1.66-3.24,2.56-5.36c1.71-4.03,3.84-9.04,7.04-11.26c2.83-1.87,4.83-6.97,5.79-9.95
				c0.63-0.08,1.42-0.14,2.25-0.14c1.66,0,3,0.25,3.86,0.74c3.33,1.85,11.7,2.34,16.12,2.34c2.26,0,5.4-0.11,7.47-0.63
				c2.15-0.54,4.65-1.25,6.51-1.86c2.91-0.95,5.42-1.77,5.24-4.25c-0.02-0.32-0.11-0.66-0.26-0.99c0.35-0.22,0.68-0.42,0.93-0.57
				c0.77-0.47,1.44-0.87,1.92-1.24c1.08-0.82,1.53-2.13,1.21-3.51c-0.84-3.61-7.99-8.38-12.71-9.3c-1.05-0.21-2.45-0.44-4.06-0.72
				c-5.06-0.87-15.6-2.68-17.87-4.35c-3.82-2.8-21.73-9.15-28.39-9.15c-0.51,0-0.97,0.03-1.39,0.1c-0.75,0.12-1.57,0.2-2.46,0.23
				c0.01-0.2-0.01-0.41-0.04-0.64c-0.04-0.24-0.45-2.36-3.07-2.36c-0.29,0-0.64,0.02-1.06,0.07c-0.6,0.06-1.34,0.1-2.2,0.1
				c-3.27,0-8.09-0.45-14.34-1.33C-2.8,10.97-3.78,10.9-4.8,10.9c-2.65,0-5.12,0.47-7.51,0.93c-0.91,0.17-1.85,0.35-2.79,0.51
				c-1.39,0.23-2.82,0.42-4.31,0.58c0.08-0.25,0.13-0.52,0.15-0.81c0.2-3.15-3.46-4.55-10.74-6.15c-14.33-4.06-29.37-6.7-45.99-8.07
				L-77.66-2.25L-77.66-2.25z"/>
		</g>
	</g>
	<path id="path817" class="st2" d="M27.35,108.48c0.15,0.02,0.79,0.13,1.19,0.55c0.45,0.58,0.83,1.1,1.06,1.66
		c0.17,0.75,0.39,1.37,0.27,2.08c-0.25,0.7-0.59,1.19-1.06,1.66c-0.52,0.65-0.91,0.98-1.46,1.39c-0.61,0.29-1.2,0.86-1.72,1.11
		c-0.25,0.34-0.89,0.58-1.19,0.97c-0.35,0.47-0.62,0.71-0.66,1.39c-0.23,0.67-0.3,1.5-0.4,2.22c-0.13,0.79-0.32,1.52-0.4,2.22
		c-0.33,0.59-0.69,0.9-1.46,1.11c-0.63,0.11-1.29,0.14-1.99,0.14c-0.4-0.38-1.07-0.81-1.46-1.25c0-0.37,0-0.74,0-1.11"/>
	<path id="path818" class="st3" d="M17.19,105.53c3.39-5.45,23.72-15.61,18.56,3.83c-1.18,2.06,1.03,2.95,1.62,1.47
		c5.45-22.97-17.09-13.26-20.77-7.22c-1.47,2.5-0.29,1.92-0.29,1.77l0,0L17.19,105.53z"/>
	<path id="path823" class="st4" d="M-57.23,82.08c7.95-0.15,16.35,0.29,22.83,4.42c6.48,4.12,13.29,6.29,19.15,5.3
		c6.83-1.15,10.46,0.15,10.46,0.15l0,0"/>
	<path id="path824" class="st5" d="M41.27,86.03c14.44,4.26,17.05,5.64,23.28,8.96c6.22,3.32,8.46,3.78,13.69,6.54
		c3.88,1.92,6.84,2.25,6.84,2.25c3.4,2.28-15.17-6.68-26.04-3.26c-4.05,0.32-4.67,0.37-8.74-3.44c-4.06-3.81-8.7-6.94-15.13-8.98
		c-6.43-2.03-17.66-5.27-17.66-5.27"/>
	<path id="path826" class="st6" d="M52.52,107.19c0.8,0,4.16-0.13,5.45,0.3c1.12,0.15,2.93,0.3,3.93,0.61
		c1.71,0.2,3.29,0.56,5.14,0.6c2,0.02,2.7,0.63,4.54,0.91c0.57,0.72,1.66,1.58,2.42,2.12"/>
	<g id="g895" transform="translate(171.500000, 12.250000)">
		<path id="path865" class="st7" d="M-46.24,6.27c0.16,1.72,0.7,9.22-0.05,9.31c-4.24,0.61-7.16,1.32-10.79,4.95
			c-3.63,3.63-11.94,9.81-16.65,1.33c-2.42-4.84,3.48-7.11,6.5-7.11c2.97-0.1,7.65-2.4,12.49-3.61s6.81-4.32,7.41-3.72L-46.24,6.27
			L-46.24,6.27z"/>
		<g id="g885">
			<path id="path863" class="st7" d="M-27.16,24.81c0.66-0.36,3.8-4.56,2.18-9.67c-2.35-3.53,10.66,3.8,7.91,7.73
				C-20.54,25.57-27.43,25.54-27.16,24.81L-27.16,24.81z"/>
			<g id="g877">
				<path id="path864" class="st7" d="M-58.16,8.42c-0.06-0.8-0.15-7.96-0.03-9.54c2.43-0.37,9.64-1.41,11.21,0.95
					c5.58,8.44-10.68,12.64-11.07,11.46L-58.16,8.42L-58.16,8.42z"/>
				<g id="g871" transform="translate(0.000000, 18.000000)">
					<path id="path862" class="st7" d="M-71.29,7.34l10.2,35.32c0,0,5.76,25.07-11.77,31.79c-5.49,0.39-7.46-0.39-7.46-0.39
						l1.57,8.63c7.78,8.03,12.8,6.13,19.47,3.38c6.67-2.75,6.94-2.96,10.48-4.92c3.53-1.96,8.4-13.02,8.94-16.17
						c1.52-8.13,6.63-24.11,21.98-58.03c-2.77-0.24-20.83,1.58-22.05,1.58c-0.61,0.97-3.45,5.61-7.82,7.45
						c-4.8,1.96-11.72-3.69-4.71-8.24c3.43-2.18,14.8,0.39,14.59-5.55c-0.29-5.16-7.92-4.65-11.06-4.26
						c-3.14,0.39-7.46,3.92-9.42,5.89C-62.73,8.2-68.94,8.91-71.29,7.34L-71.29,7.34L-71.29,7.34L-71.29,7.34L-71.29,7.34z"/>
					<g id="g867" transform="translate(0.000000, 86.000000)">
						<path id="path859" class="st7" d="M-86.99,5.33c2.36,3.92,4.71,8.63,5.89,14.91c1.18,6.28,4.58,15.06,13.34,17.27
							c7.06,1.96,13.34,5.1,14.91,10.6c1.57,5.49,2.69,12.5,2.69,12.38l10.92-15.46c-0.12-2.07-0.21-7.1-0.21-12.99
							c-0.12-8.56-6.47-10.65-12.75-13.01c-6.28-2.35-13.32-5.28-15.28-8.81c-1.96-3.53-6.97-9.61-9.72-11.96
							C-79.93-4.09-86.99,5.33-86.99,5.33L-86.99,5.33L-86.99,5.33L-86.99,5.33z"/>
						<path id="path860" class="st7" d="M-75.45,78.18c6.07,10.91,7.46,24.92,9.95,35.35c4.33-8.22,11.07-14.08,18.17-18.7
							c0.42-8.19,2.49-19.49,4.85-23.02c11.38-16.58,3.37-26.06,3.37-26.06c-11.37,13.35-11.76,22.9-36.32,32.41L-75.45,78.18
							L-75.45,78.18L-75.45,78.18z"/>
						<path id="path866" class="st7" d="M-86.26,111.9c-0.31,2.71,3.31,12.12,9.44,12.54c6.02,0.41,9.5-4.22,10.6-9.64l-3.02-18.19
							L-86.26,111.9L-86.26,111.9z"/>
					</g>
				</g>
			</g>
		</g>
	</g>
	<path id="path912" class="st8" d="M85.7,106.32c-1.21-3.33,0.6-3.33,3.93-1.82c5.45,3.33,1.51,11.8-4.54,13.62
		c-3.33,1.51-5.14-2.42-0.3-4.24C89.33,112.68,85.7,106.02,85.7,106.32h0.3H85.7L85.7,106.32z"/>
	<path id="path955" class="st9" d="M124.54,159.27c0,0.14,0,0.27,0,0.41c0-1.11-0.02-0.54,0.3,1.64c0,2.22,0.17,4.09,0.3,6.16
		c0,1.71-0.2,2.94-0.3,4.51"/>
	<path id="path956" class="st9" d="M121.51,161.32c0,0.25,0,0.5,0,0.75c0-1.39-0.04-0.99,0.3,1.12c0.12,2.11,0.55,3.21,0.61,5.25
		c0,2.06-0.25,3.66-0.3,5.62"/>
	<path id="path957" class="st9" d="M120,206.44c0.1,0,0.2,0,0.3,0c-0.08,0.29,0,1.91,0,2.99c0,1.63-0.03,3.23-0.3,4.27"/>
	<path id="path958" class="st9" d="M116.67,207.95c0,0.2,0,0.4,0,0.61V207.95c0,0.2,0,0.4,0,0.61V207.95
		c0.07,2.24,0.3,3.47,0.3,5.75c0,0.7,0.13,1.23-0.3,1.51"/>
	<path id="path960" class="st9" d="M113.65,209.77c0.12,2.44,0.53,4.03,0.61,6.54c0,1.26-0.25,1.4-0.3,2.54"/>
	<path id="path961" class="st9" d="M110.01,211.61c0,0.13,0,0.26,0,0.38c0-1.03-0.02-0.51,0.3,1.53c0.05,1.88,0.3,2.89,0.3,4.97
		c-0.06,2-0.5,2.83-0.6,4.59"/>
	<path id="path963" class="st9" d="M107.29,212.8c0,0.54,0.16,2.64,0.3,3.93c0,1.41,0,2.82,0,4.24c-0.17,1.41-0.48,2.93-0.91,3.93
		c0,0.3,0,0.6,0,0.91"/>
	<path id="path977" class="st9" d="M127.57,159.94c0.08,0.57,0.52,2.74,0,4.13c0,1.23-0.14,1.87-0.3,2.76"/>
	<path id="path978" class="st10" d="M92.62,107.61c4.06,0.83,13.95,0,17.91-2.92c3.96-2.92,3.96-2.92,3.96-2.92"/>
	<path id="path979" class="st10" d="M92.64,109.6c3.88,1.46,13.78,2.2,18.15-0.06c4.37-2.26,4.37-2.26,4.37-2.26"/>
	<path id="path980" class="st10" d="M92.31,114.9c2.08,2.5,3.54,3.75,4.17,7.08s0.62,3.33,0.62,3.33"/>
	<path id="path981" class="st10" d="M89.81,116.15c2.5,3.54,4.17,4.79,5,8.33c0.83,3.54,0.83,3.54,0.83,3.54"/>
	<path id="path982" class="st10" d="M87.73,118.44c1.04,5.42,5.21,15.62,8.33,18.95c3.12,3.33,3.12,3.33,3.12,3.33"/>
	<path id="path986" class="st10" d="M130.46,50.07c-0.31,2.53-0.46,7.51,0.46,10.65c0.92,3.14,0.92,3.14,0.92,3.14"/>
	<path id="path987" class="st10" d="M137.81,42.11c-1.76,0.61-4.36,1.99-5.21,3.14c-0.84,1.15-0.84,1.15-0.84,1.15"/>
	<path id="path988" class="st11" d="M116.55,44.38c3.79,6.67,2.62,28.46,1.83,30.94c-0.78,2.48-0.78,2.48-0.78,2.48"/>
	<path id="path989" class="st10" d="M104.18,30.86c-1.56,0.52-4.79,3.07-5.05,4.48"/>
	<path id="path990" class="st10" d="M106.68,32.69c-1.56,0.52-4.79,3.07-5.05,4.48"/>
	<path class="st1" d="M24.88,158.05c-8.33,0-15.11-6.78-15.11-15.11s6.78-15.11,15.11-15.11s15.11,6.78,15.11,15.11
		S33.21,158.05,24.88,158.05z M24.88,133.16c-5.39,0-9.77,4.39-9.77,9.78s4.38,9.77,9.77,9.77s9.78-4.38,9.78-9.77
		S30.27,133.16,24.88,133.16z"/>
	<polygon id="polygon2713" points="27.77,134.05 28.88,132.5 29.99,130.72 31.32,129.17 31.54,127.61 31.76,124.72 29.32,123.61 
		25.99,124.72 24.66,126.28 25.77,127.83 26.21,129.17 25.77,131.16 25.1,132.5 24.21,133.61 	"/>
</g>
</svg>
