<?xml version="1.0" encoding="utf-8"?>
<!-- Generator: Adobe Illustrator 24.0.0, SVG Export Plug-In . SVG Version: 6.00 Build 0)  -->
<svg version="1.1" id="Layer_1" xmlns="http://www.w3.org/2000/svg" xmlns:xlink="http://www.w3.org/1999/xlink" x="0px" y="0px"
	 viewBox="0 0 70 70" style="enable-background:new 0 0 70 70;" xml:space="preserve">
<g>
	<g>
		<path d="M42.44,16.06c1.84,0.26,3.65,0.72,5.43,1.27c3.11,0.96,6.05,2.29,8.81,4.02c0.19,0.12,0.45,0.19,0.67,0.19
			c3.24,0.01,6.49,0.01,9.73,0.01c0.26,0,0.52,0.03,0.78,0.04c0,0.06,0.01,0.09,0,0.11c-0.15,0.23-0.3,0.46-0.46,0.7
			c-1.1,1.69-2.04,3.45-2.6,5.4c-0.06,0.21-0.07,0.39,0.07,0.59c2.89,4.15,3.81,8.7,2.6,13.61c-1.06,4.3-3.52,7.66-7.27,10.03
			c-2.68,1.7-5.64,2.51-8.8,2.53c-1.33,0.01-2.65-0.17-3.95-0.51c-3.16-0.82-5.87-2.4-8.11-4.78c-0.29-0.31-0.57-0.64-0.89-1
			c-1.18,1.76-2.34,3.49-3.53,5.27c-1.19-1.77-2.33-3.49-3.48-5.19c-0.08,0.04-0.1,0.05-0.12,0.06c-0.03,0.02-0.05,0.05-0.07,0.07
			c-2.7,3.19-6.1,5.15-10.24,5.8c-2.3,0.36-4.58,0.23-6.82-0.38c-3.17-0.87-5.87-2.54-8.04-5.01c-2.13-2.41-3.45-5.21-3.95-8.4
			c-0.57-2.97,0.12-5.84,0.3-6.54c0.5-2.02,1.37-3.88,2.57-5.59c0.08-0.12,0.11-0.34,0.07-0.48c-0.49-1.79-1.33-3.42-2.32-4.98
			c-0.25-0.4-0.55-0.76-0.83-1.15c0-0.04,0-0.09,0-0.13c0.06,0.01,0.11,0.02,0.16,0.02c3.32,0,6.64,0,9.95,0
			c0.14,0,0.31-0.06,0.43-0.14c2.33-1.5,4.82-2.68,7.43-3.6c1.88-0.66,3.8-1.18,5.76-1.56c1.9-0.37,3.81-0.63,5.73-0.75
			C36.19,15.21,39.95,15.71,42.44,16.06z M38.28,37.98c0,7.29,5.91,13.24,13.17,13.21c7.29-0.03,13.17-5.81,13.17-13.18
			c-0.01-7.59-6.16-13.3-13.45-13.15C43.98,25.01,38.35,30.8,38.28,37.98z M18.52,24.81C11.44,24.74,5.25,30.66,5.38,38.2
			c0.12,7.03,5.91,12.98,13.29,12.92c7.22-0.06,13.03-5.96,13.04-13.1C31.72,30.68,25.85,24.81,18.52,24.81z M19.18,21.37
			c4,0.24,7.52,1.64,10.49,4.34c2.97,2.7,4.7,6.06,5.33,10.02c0.65-3.91,2.34-7.24,5.25-9.91c2.91-2.67,6.39-4.08,10.32-4.37
			c-4.67-2.08-9.6-2.96-14.67-3.06C30.14,18.27,24.53,19.12,19.18,21.37z"/>
		<path d="M51.43,29.66c4.51-0.01,8.16,3.63,8.16,8.13c0,4.52-3.59,8.02-7.83,8.18c-4.73,0.18-8.52-3.59-8.51-8.16
			C43.26,33.19,47.07,29.59,51.43,29.66z M56.75,37.81c0-2.94-2.38-5.33-5.3-5.33c-2.95,0-5.36,2.38-5.37,5.31
			c-0.01,2.92,2.41,5.35,5.33,5.35C54.34,43.16,56.75,40.75,56.75,37.81z"/>
		<path d="M18.35,29.66c4.51,0,8.17,3.64,8.15,8.14c-0.01,4.56-3.61,7.98-7.77,8.17c-4.75,0.22-8.58-3.57-8.57-8.17
			C10.17,33.15,14.01,29.58,18.35,29.66z M23.66,37.79c-0.01-2.96-2.4-5.32-5.39-5.31c-2.88,0.01-5.29,2.44-5.29,5.33
			c0.01,2.92,2.42,5.33,5.35,5.34C21.26,43.15,23.67,40.73,23.66,37.79z"/>
		<path d="M51.44,35.11c1.49,0,2.72,1.22,2.71,2.71c-0.01,1.49-1.22,2.7-2.69,2.7c-1.51,0-2.73-1.2-2.73-2.68
			C48.73,36.3,49.91,35.11,51.44,35.11z"/>
		<path d="M18.34,35.08c1.52,0,2.74,1.21,2.74,2.72c0.01,1.5-1.22,2.73-2.73,2.73c-1.55,0-2.74-1.19-2.74-2.75
			C15.61,36.27,16.8,35.08,18.34,35.08z"/>
	</g>
</g>
</svg>
