<?xml version="1.0" encoding="utf-8"?>
<!-- Generator: Adobe Illustrator 24.0.0, SVG Export Plug-In . SVG Version: 6.00 Build 0)  -->
<svg version="1.1" id="Layer_1" xmlns="http://www.w3.org/2000/svg" xmlns:xlink="http://www.w3.org/1999/xlink" x="0px" y="0px"
	 viewBox="0 0 70 70" style="enable-background:new 0 0 70 70;" xml:space="preserve">
<g id="g1382" transform="matrix(1.25,0,0,-1.25,438.53875,696.92845)">
	<path id="path1384" d="M-341.93,530.52c-0.86-1.37-1.22-5.7-0.92-8.57c0.1-0.95,0.28-1.74,0.53-2.21c0.34-0.65,0.92-1.04,1.58-1.06
		c0.42-0.02,0.68,0.05,8.61,2.6c0,0,3.52,1.12,3.54,1.13c0.88,0.22,1.47,1.03,1.53,2.06c0.06,1.06-0.49,1.99-1.39,2.33
		c0,0-2.48,1.01-2.49,1.01c-8.52,3.51-8.9,3.65-9.33,3.66C-340.93,531.49-341.52,531.16-341.93,530.52"/>
</g>
<g id="g1386" transform="matrix(1.25,0,0,-1.25,448.53875,710.66595)">
	<path id="path1388" d="M-330.87,515.34c0.14,0.4,0.15,0.67,0.18,9c0,0,0.02,3.68,0.02,3.72c0.06,0.9-0.53,1.72-1.48,2.09
		c-0.98,0.38-2.04,0.15-2.64-0.6c0,0-1.74-2.06-1.74-2.06c-5.97-7.01-6.22-7.33-6.36-7.75c-0.09-0.24-0.12-0.5-0.1-0.76
		c0.04-0.37,0.2-0.74,0.48-1.08c1.38-1.64,8.02-4.08,10.14-3.72C-331.63,514.3-331.1,514.72-330.87,515.34"/>
</g>
<g id="g1390" transform="matrix(1.25,0,0,-1.25,455.60375,709.1447)">
	<path id="path1392" d="M-323.06,517.02c2,0.8,6.36,6.35,6.67,8.49c0.11,0.74-0.13,1.38-0.64,1.79c-0.34,0.25-0.59,0.35-8.51,2.95
		c0,0-3.48,1.15-3.52,1.17c-0.84,0.33-1.8,0.02-2.45-0.77c-0.67-0.82-0.77-1.9-0.24-2.71l1.4-2.28c4.7-7.64,5.06-8.18,5.4-8.44
		C-324.42,516.81-323.75,516.74-323.06,517.02"/>
</g>
<g id="g1394" transform="matrix(1.25,0,0,-1.25,453.455,698.8272)">
	<path id="path1396" d="M-325.44,528.42c9,2.18,9.35,2.3,9.71,2.53c0.55,0.37,0.82,0.98,0.77,1.73c0,0.02,0,0.05,0,0.08
		c-0.23,2.21-4.1,7.96-6.01,8.89c-0.68,0.32-1.35,0.3-1.91-0.07c-0.35-0.23-0.6-0.57-5.42-7.16c0,0-2.18-2.97-2.2-2.99
		c-0.57-0.7-0.58-1.7-0.02-2.56c0.58-0.89,1.56-1.32,2.46-1.07c0,0-0.04-0.06-0.05-0.08C-327.67,527.88-326.88,528.08-325.44,528.42
		"/>
</g>
<g id="g1398" transform="matrix(1.25,0,0,-1.25,448.7125,694.92595)">
	<path id="path1400" d="M-330.68,532.74c-0.15,3.57-1.23,19.45-1.36,20.19c-0.18,0.67-0.7,1.14-1.45,1.33
		c-2.3,0.57-11.08-1.89-12.71-3.57c-0.52-0.55-0.72-1.22-0.56-1.81c0.26-0.53,11.14-17.65,11.14-17.65c1.61-2.61,2.92-2.2,3.35-2.07
		C-331.84,529.29-330.53,529.69-330.68,532.74"/>
</g>
</svg>
